<?xml version="1.0" standalone="no"?>
<!DOCTYPE svg PUBLIC "-//W3C//DTD SVG 20010904//EN"
 "http://www.w3.org/TR/2001/REC-SVG-20010904/DTD/svg10.dtd">
<svg version="1.0" xmlns="http://www.w3.org/2000/svg"
 width="500.000000pt" height="500.000000pt" viewBox="0 0 500.000000 500.000000"
 preserveAspectRatio="xMidYMid meet">
<metadata>
Created by potrace 1.14, written by Peter Selinger 2001-2017
</metadata>
<g transform="translate(0.000000,500.000000) scale(0.100000,-0.100000)"
fill="#000000" stroke="none">
<path d="M813 4498 c-5 -7 -35 -58 -66 -113 -91 -162 -118 -260 -97 -359 15
-71 40 -129 80 -185 l31 -43 -37 -71 c-46 -90 -54 -99 -54 -61 0 42 -27 128
-61 196 -31 61 -148 194 -159 181 -4 -4 -22 -64 -40 -133 -41 -157 -48 -256
-26 -332 21 -72 89 -174 143 -213 23 -16 40 -35 38 -42 -2 -7 -14 -62 -26
-122 l-22 -110 -38 78 c-46 94 -125 179 -219 234 -36 20 -69 37 -75 37 -7 0
-10 -42 -8 -127 7 -235 32 -319 125 -411 48 -48 153 -112 183 -112 8 0 14 -39
18 -127 4 -71 9 -138 13 -151 4 -15 -16 1 -62 48 -49 51 -88 81 -139 105 -85
42 -225 80 -225 61 0 -15 85 -257 102 -290 37 -72 80 -125 133 -161 59 -41
158 -75 218 -75 l42 0 40 -107 c22 -59 42 -111 43 -115 2 -5 -25 7 -60 26 -90
50 -181 69 -296 63 -52 -3 -96 -8 -99 -11 -12 -12 152 -225 222 -288 82 -75
220 -112 331 -89 57 11 60 11 74 -11 8 -12 41 -57 73 -100 31 -43 57 -80 57
-83 0 -2 -19 3 -42 12 -59 21 -226 29 -296 13 -61 -13 -152 -49 -152 -59 1 -3
51 -48 113 -99 146 -121 234 -165 336 -171 83 -4 164 11 227 42 l42 20 74 -64
c40 -35 86 -74 101 -85 37 -30 34 -34 -15 -22 -70 16 -223 3 -300 -25 -65 -24
-178 -85 -178 -97 0 -8 163 -103 246 -144 79 -39 174 -66 231 -66 87 0 229 55
289 111 l30 29 113 -59 113 -58 -69 -17 c-100 -25 -196 -80 -270 -154 -35 -35
-62 -69 -60 -75 7 -21 245 -67 350 -68 84 0 106 4 154 25 73 34 145 87 174
131 13 19 29 35 34 35 6 0 43 -11 84 -23 l75 -23 -80 -28 c-103 -37 -206 -92
-246 -134 l-33 -33 30 -24 30 -24 30 28 c61 57 168 105 354 156 71 21 89 18
256 -37 113 -38 175 -69 223 -113 l38 -34 30 24 29 23 -34 36 c-41 42 -136 94
-245 132 l-80 28 75 23 c81 25 99 27 99 15 0 -16 93 -103 137 -129 72 -42 120
-54 214 -54 75 0 241 28 342 57 15 5 12 12 -23 54 -75 89 -187 158 -305 187
l-67 16 113 58 113 58 33 -30 c68 -59 200 -109 288 -109 59 0 150 26 228 64
84 42 247 138 247 146 0 12 -113 73 -178 97 -77 28 -230 41 -299 25 -24 -5
-43 -9 -43 -8 0 2 45 42 100 90 l101 87 67 -27 c51 -21 89 -29 157 -32 104 -5
167 14 260 77 78 52 234 184 231 195 -1 5 -31 21 -67 35 -58 23 -78 25 -199
25 -102 0 -146 -4 -177 -17 -24 -9 -43 -14 -43 -11 0 3 15 24 34 47 18 23 51
68 71 100 33 50 42 57 62 52 100 -25 220 -11 301 35 28 17 73 52 101 80 54 54
197 248 189 256 -3 3 -44 7 -90 11 -111 8 -198 -9 -294 -57 -55 -28 -74 -34
-69 -22 4 9 24 61 44 114 l36 98 41 0 c58 0 161 34 217 70 48 33 100 95 136
167 20 41 101 269 101 287 0 12 -72 0 -147 -25 -83 -27 -166 -83 -232 -155
-30 -32 -51 -50 -47 -39 4 11 10 75 13 142 3 67 9 125 12 130 3 5 37 23 74 42
75 36 156 111 187 171 32 62 48 153 56 308 8 164 10 161 -80 107 -110 -66
-185 -148 -237 -260 -16 -35 -28 -52 -28 -40 -1 11 -12 67 -25 125 -22 96 -22
106 -7 114 37 20 112 109 142 168 53 105 51 213 -8 428 -14 52 -29 99 -33 103
-4 4 -34 -21 -68 -57 -72 -78 -127 -183 -146 -281 l-13 -70 -41 82 -42 82 40
57 c21 31 47 79 57 107 25 73 23 186 -5 261 -22 60 -142 286 -152 286 -11 0
-71 -107 -92 -166 -18 -48 -23 -80 -23 -171 l0 -112 -22 21 c-12 12 -30 46
-38 76 -45 153 -198 292 -372 337 -56 15 -183 21 -183 9 0 -4 28 -61 62 -128
50 -98 76 -135 133 -192 62 -63 79 -74 139 -93 37 -12 91 -21 120 -21 46 0 54
-3 77 -33 44 -55 44 -58 -3 -41 -67 24 -192 29 -269 10 -68 -16 -179 -63 -179
-76 0 -7 123 -97 205 -149 44 -28 46 -31 20 -26 -16 3 -122 21 -235 40 -367
63 -564 127 -931 302 l-136 65 -144 -70 c-253 -122 -482 -206 -689 -252 -88
-20 -423 -80 -427 -76 -1 0 49 35 110 77 62 41 112 82 112 90 0 8 -34 28 -85
49 -81 33 -91 35 -200 34 -80 -1 -128 -6 -158 -17 -46 -18 -46 -15 -3 40 23
30 31 33 77 33 117 0 232 60 304 159 23 32 69 108 101 169 l59 112 -62 0
c-139 0 -267 -52 -371 -150 -64 -60 -119 -145 -132 -207 -3 -18 -18 -47 -33
-66 l-27 -33 0 120 c-1 134 -15 184 -78 284 -26 41 -36 50 -44 40z m3080 -229
c53 -40 95 -74 93 -77 -5 -5 -316 206 -316 214 0 11 131 -69 223 -137z m-2528
122 c-31 -28 -297 -201 -280 -182 24 28 127 103 209 153 58 35 91 49 71 29z
m-533 -406 c-9 -65 -10 -61 -11 71 0 78 2 163 7 190 11 75 15 -173 4 -261z
m3397 107 c-1 -127 -4 -162 -9 -122 -12 85 -12 312 0 305 6 -4 9 -74 9 -183z
m-3089 -192 c-206 -27 -250 -30 -220 -19 43 17 191 37 275 37 80 0 79 0 -55
-18z m2878 4 c59 -8 113 -19 122 -24 16 -10 -14 -7 -230 20 -124 16 -129 18
-66 19 38 0 116 -6 174 -15z m-3453 -219 c13 -49 26 -117 29 -150 4 -45 -4
-22 -33 93 -21 85 -41 168 -44 185 l-6 32 16 -35 c8 -19 26 -75 38 -125z
m3935 -25 c-40 -171 -50 -203 -50 -163 0 56 75 352 86 341 2 -3 -14 -83 -36
-178z m-3604 78 c52 -23 180 -31 237 -15 27 7 28 6 25 -23 l-3 -31 -100 -3
c-115 -4 -176 -21 -259 -71 -32 -19 -60 -35 -62 -35 -6 0 45 111 72 158 14 23
29 42 33 42 5 0 30 -10 57 -22z m3366 -54 c21 -38 42 -81 47 -96 l9 -26 -71
38 c-102 55 -188 74 -309 66 l-98 -6 0 46 c0 33 4 44 13 40 101 -42 209 -45
302 -7 28 11 55 19 60 17 6 -1 27 -33 47 -72z m-3217 -114 c-82 -35 -359 -139
-362 -136 -6 6 174 85 263 115 82 28 148 42 99 21z m3057 -231 c62 -33 65 -34
185 -34 l123 0 19 -85 c10 -47 22 -100 25 -118 l6 -33 -62 56 c-100 90 -232
145 -350 145 l-57 0 50 -111 c109 -246 194 -327 376 -361 l66 -12 -7 -90 c-10
-132 -18 -196 -25 -196 -3 0 -19 26 -36 58 -54 104 -173 207 -295 253 l-50 19
0 -33 c0 -52 28 -235 44 -288 36 -119 109 -207 216 -258 30 -14 56 -27 58 -27
5 -3 -45 -139 -76 -208 l-26 -59 -13 79 c-15 91 -63 199 -116 262 -54 64 -130
124 -138 109 -18 -36 -44 -224 -44 -322 0 -105 2 -114 33 -177 22 -44 52 -84
92 -121 l59 -55 -55 -78 c-30 -44 -67 -94 -82 -113 l-29 -34 1 109 c1 89 -4
122 -23 182 -22 67 -115 225 -134 226 -10 1 -91 -178 -124 -274 -50 -144 -32
-279 53 -396 l35 -49 -73 -68 c-40 -37 -91 -80 -114 -97 l-41 -29 19 67 c23
80 27 214 9 292 -14 59 -79 210 -91 210 -14 0 -159 -226 -196 -304 -33 -68
-39 -92 -42 -165 -4 -74 0 -97 22 -161 15 -41 29 -82 32 -91 4 -13 -24 -31
-126 -83 -73 -37 -134 -65 -137 -62 -2 2 12 27 32 54 79 110 114 259 94 400
-6 42 -13 79 -15 81 -8 8 -160 -115 -236 -190 -108 -106 -132 -160 -133 -294
0 -55 2 -111 5 -124 6 -28 0 -30 -196 -83 l-90 -25 -145 41 c-140 40 -144 42
-139 66 3 14 5 70 5 125 -1 125 -24 181 -115 278 -61 66 -246 214 -255 205 -2
-2 -8 -40 -13 -84 -17 -146 12 -273 88 -386 22 -33 39 -63 36 -65 -6 -6 -266
128 -266 137 0 4 12 33 26 65 20 43 28 79 32 144 5 100 -9 162 -59 257 -36 68
-169 264 -179 264 -11 0 -71 -135 -86 -193 -20 -76 -18 -229 5 -310 21 -76 27
-76 -69 2 -30 24 -74 62 -97 84 l-41 39 39 61 c43 67 79 169 79 226 0 78 -41
204 -125 384 l-27 59 -29 -34 c-95 -111 -150 -297 -131 -438 l9 -64 -34 39
c-18 22 -58 75 -88 119 l-54 78 59 55 c40 37 70 77 92 121 31 64 33 72 33 182
0 106 -25 280 -45 319 -5 10 -28 -6 -84 -59 -94 -90 -149 -191 -169 -315 l-13
-79 -34 79 c-35 85 -72 188 -68 189 114 45 201 118 242 202 32 66 61 193 71
318 l7 87 -52 -21 c-130 -51 -243 -150 -298 -260 -18 -35 -34 -56 -36 -49 -5
14 -26 227 -26 265 0 18 10 23 68 33 178 32 263 114 372 360 l49 111 -49 0
c-123 0 -263 -57 -356 -145 -32 -30 -59 -55 -60 -55 -2 0 14 89 31 165 l15 70
123 0 c120 0 123 1 186 34 36 20 94 66 136 109 l74 73 5 -43 c3 -24 8 -108 11
-188 17 -427 56 -658 164 -971 84 -244 204 -467 371 -687 195 -258 522 -540
751 -647 34 -16 38 -16 80 2 215 96 595 427 769 672 217 304 341 572 426 916
57 233 73 360 89 715 3 69 8 162 11 208 l6 83 98 -104 c70 -73 117 -113 162
-138z m-10 215 c85 -27 262 -104 254 -111 -4 -4 -307 111 -336 128 -25 14 -4
10 82 -17z m-1579 -95 c18 18 26 13 19 -11 -5 -21 -4 -22 12 -9 15 13 16 12 8
-10 -10 -26 -6 -49 8 -49 5 0 11 10 14 23 2 12 2 -6 -1 -40 -2 -34 0 -69 5
-79 9 -16 11 -15 22 5 6 13 10 31 7 41 -3 10 -1 34 3 52 l8 33 1 -30 1 -29 16
22 c8 12 30 29 47 38 l32 15 -24 -21 c-29 -25 -10 -27 44 -4 20 8 34 10 30 5
-3 -6 -12 -11 -19 -11 -8 0 -19 -6 -25 -14 -7 -8 -25 -18 -41 -21 -23 -5 -32
-15 -44 -52 -18 -54 -19 -63 -7 -63 5 0 14 12 20 28 11 27 11 27 6 -6 -3 -20
-1 -31 5 -27 6 3 11 16 11 28 1 18 2 19 6 4 7 -27 -22 -64 -57 -72 -16 -4 -38
-19 -48 -33 -21 -30 -45 -93 -37 -100 5 -5 49 45 77 87 10 14 18 22 18 18 0
-5 -14 -30 -32 -55 -17 -26 -40 -59 -50 -74 -20 -30 -24 -93 -8 -103 16 -10
40 14 40 40 0 13 7 38 15 56 l15 34 -6 -47 c-3 -27 -3 -48 2 -48 19 0 44 36
44 64 0 17 7 51 15 76 l15 45 -6 -52 c-7 -66 8 -70 32 -8 14 38 15 52 5 84 -6
21 -10 65 -9 97 1 52 2 54 5 14 5 -65 12 -92 23 -85 6 3 10 18 10 32 0 16 12
37 34 58 23 21 36 44 39 66 l4 34 1 -36 c1 -24 -4 -42 -18 -54 -25 -23 -37
-63 -45 -152 -5 -49 -4 -73 4 -73 15 0 31 34 31 64 0 16 13 39 33 59 17 18 22
21 10 7 -19 -21 -32 -70 -20 -70 14 0 100 94 108 119 6 18 13 30 15 28 9 -8
-18 -63 -44 -89 -30 -32 -28 -33 21 -13 20 8 47 15 60 15 13 0 36 13 52 30 16
17 38 30 49 29 19 0 19 -1 -3 -10 -13 -5 -36 -23 -51 -39 -18 -19 -38 -30 -57
-30 -25 -1 -26 -2 -10 -11 11 -6 33 -8 50 -5 23 4 28 3 17 -4 -8 -5 -33 -10
-55 -11 -22 0 -49 -4 -60 -9 -18 -8 -18 -9 5 -10 22 0 23 -2 7 -11 -10 -6 -30
-9 -45 -7 -19 2 -27 -2 -27 -12 0 -11 10 -15 39 -14 24 1 33 -2 25 -7 -8 -5
-29 -9 -46 -9 -36 0 -43 -13 -15 -29 25 -15 -3 -14 -45 1 -26 9 -36 9 -45 -1
-11 -10 -8 -16 12 -31 14 -11 34 -20 45 -21 16 -1 17 -2 3 -6 -9 -2 -31 3 -48
12 -37 19 -58 14 -84 -21 l-19 -26 46 3 c59 5 51 -8 -11 -16 -64 -9 -100 -24
-117 -49 -32 -45 -14 -47 53 -6 27 17 58 30 68 29 11 0 5 -5 -13 -10 -18 -5
-55 -31 -84 -57 l-51 -47 8 -65 c8 -55 12 -65 29 -65 14 0 22 11 31 42 7 24
20 53 30 65 14 20 15 20 9 3 -12 -31 -18 -85 -9 -85 18 0 44 35 44 60 0 17 13
39 40 65 22 21 40 34 40 29 0 -6 -13 -20 -30 -32 -29 -22 -42 -62 -20 -62 6 0
33 21 61 47 49 45 49 47 43 93 -4 33 -2 50 6 55 8 5 10 2 6 -11 -7 -23 8 -49
23 -40 6 4 11 18 11 32 0 13 4 24 10 24 5 0 7 -14 3 -32 l-6 -33 27 24 c23 21
26 32 26 85 0 34 7 79 15 101 l15 40 -5 -55 c-5 -52 -4 -53 7 -24 7 18 32 50
55 72 45 44 47 25 2 -20 -26 -27 -57 -123 -43 -137 11 -11 54 53 54 81 0 15 5
30 11 34 6 3 17 21 25 40 8 18 24 39 36 45 20 11 20 9 -5 -20 -15 -18 -27 -36
-27 -41 0 -9 76 26 105 49 20 16 20 16 1 -7 -11 -12 -31 -28 -44 -35 -28 -14
-60 -63 -48 -74 4 -4 31 -10 59 -14 l52 -6 -57 -2 c-32 0 -58 -5 -58 -9 0 -4
20 -14 45 -21 25 -7 48 -17 51 -23 3 -5 -11 -2 -31 6 -33 14 -60 14 -105 0
-13 -5 -13 -6 0 -14 13 -8 13 -10 -1 -10 -8 0 -31 -16 -50 -36 -39 -42 -38
-42 84 2 64 23 79 25 90 14 10 -10 9 -12 -6 -7 -10 4 -33 -1 -50 -10 -18 -9
-63 -28 -100 -42 -73 -28 -85 -47 -27 -44 33 2 34 2 10 -8 -14 -6 -44 -8 -67
-5 -27 4 -45 1 -52 -8 -13 -15 -5 -26 20 -26 10 0 20 -4 23 -9 3 -5 -17 -8
-44 -8 -42 1 -55 -4 -78 -26 -23 -23 -25 -29 -12 -37 26 -17 93 -11 129 11 27
16 32 17 28 5 -5 -11 0 -16 13 -16 12 0 30 16 46 43 24 39 84 103 84 90 0 -3
-13 -21 -30 -40 -26 -30 -40 -63 -25 -63 16 0 85 76 85 94 0 31 11 43 63 71
67 35 73 31 10 -6 -29 -17 -53 -35 -53 -41 0 -6 9 -3 20 7 17 15 27 17 72 8
53 -10 53 -10 13 -12 l-40 -1 25 -21 c21 -17 22 -19 3 -10 -31 15 -54 14 -75
-6 -28 -25 -22 -33 30 -33 26 0 54 -5 62 -11 12 -9 12 -10 -4 -5 -28 9 -117
-5 -113 -18 2 -6 20 -10 39 -8 19 1 46 -1 58 -6 16 -6 -4 -8 -62 -7 -68 1 -91
-2 -109 -16 l-24 -17 28 -7 c15 -4 39 -4 55 -1 20 5 23 4 12 -4 -8 -5 -41 -10
-72 -10 -31 0 -63 -3 -72 -6 -25 -10 -19 -32 14 -49 29 -15 33 -15 64 4 19 12
48 20 67 19 l34 -1 -32 -4 c-17 -2 -36 -10 -42 -17 -8 -10 10 -12 85 -11 64 0
87 -2 72 -8 -13 -5 -43 -6 -69 -4 -63 8 -82 -6 -39 -28 35 -18 114 -94 107
-102 -3 -2 -21 10 -40 26 -29 26 -93 61 -112 61 -3 0 -5 -7 -5 -15 0 -8 16
-22 35 -31 36 -17 54 -34 37 -34 -5 0 -15 7 -22 15 -7 8 -20 15 -29 15 -10 0
-28 11 -40 24 -13 13 -45 31 -71 40 -55 18 -72 20 -50 6 8 -5 10 -10 4 -10 -6
0 -28 14 -49 30 -29 23 -48 30 -82 30 -54 0 -49 -13 15 -35 26 -8 63 -29 82
-46 l35 -31 -45 30 c-25 17 -61 34 -80 37 -19 4 -51 17 -71 28 -100 57 -166
-47 -177 -280 -6 -145 6 -190 64 -242 57 -50 114 -65 239 -64 55 1 125 -3 155
-8 113 -19 234 -47 209 -48 -40 -1 -42 -12 -7 -38 18 -12 28 -23 24 -23 -4 0
-22 11 -40 25 -19 14 -46 25 -64 25 -17 0 -50 7 -72 16 -23 9 -44 13 -48 10
-10 -11 19 -25 65 -32 27 -4 50 -15 65 -33 l23 -26 -25 22 c-16 13 -43 23 -75
26 -27 2 -77 9 -110 15 -145 27 -176 29 -171 15 7 -17 -3 -17 -24 2 -9 8 -32
17 -51 20 l-34 6 45 -26 c27 -16 35 -24 20 -20 -63 16 -70 17 -70 7 0 -29 113
-52 151 -31 33 17 89 29 108 21 13 -5 11 -7 -9 -13 -15 -4 -1 -6 35 -5 33 0
69 -5 80 -12 18 -11 17 -12 -10 -7 l-30 5 27 -11 c15 -6 30 -19 33 -29 3 -10
22 -25 43 -34 33 -15 34 -16 7 -11 -16 4 -42 17 -56 31 -33 32 -76 43 -125 34
l-39 -8 40 -1 c22 -1 56 -10 75 -21 43 -23 36 -25 -15 -4 -27 11 -41 12 -48 5
-8 -8 -5 -11 9 -11 10 0 30 -10 44 -21 24 -19 24 -20 2 -9 -22 11 -124 40
-139 40 -23 0 27 -28 75 -42 l57 -17 -47 5 c-32 4 -48 3 -48 -5 0 -6 18 -11
43 -11 33 0 49 -6 63 -22 l19 -22 -25 17 c-13 9 -37 17 -53 17 l-29 0 17 -26
c16 -25 15 -25 -24 6 -22 18 -41 37 -41 42 0 4 -4 8 -10 8 -22 0 -9 -40 18
-54 16 -8 35 -23 43 -32 8 -10 -8 -2 -36 18 -38 26 -51 42 -53 64 -5 38 -29
64 -61 64 -23 -1 -24 -2 -8 -11 9 -5 26 -28 36 -50 22 -44 9 -43 -14 2 -9 16
-22 29 -29 29 -7 0 -19 7 -26 15 -13 16 -112 75 -125 75 -5 0 0 -9 10 -20 10
-11 23 -20 28 -20 11 0 117 -70 117 -78 0 -2 -12 3 -26 13 -14 9 -28 15 -30
12 -4 -4 46 -51 118 -110 15 -12 27 -26 27 -31 1 -6 -12 3 -27 18 -26 24 -30
25 -42 11 -10 -12 -10 -19 -2 -27 7 -7 12 -19 12 -27 0 -22 -29 19 -30 42 0 9
-5 17 -11 17 -7 0 -8 -12 -4 -32 5 -25 4 -29 -4 -18 -6 8 -11 33 -11 55 0 34
-5 43 -29 58 -37 22 -41 21 -41 -3 0 -12 10 -25 25 -32 18 -8 25 -19 24 -37 0
-24 -1 -25 -9 -5 -10 25 -39 39 -53 25 -5 -5 -5 -26 1 -55 5 -25 6 -43 1 -40
-5 3 -9 11 -9 18 0 8 -6 26 -14 41 l-15 28 -5 -24 c-3 -13 -7 -33 -9 -44 -3
-11 -5 -3 -6 17 0 21 4 58 11 82 9 33 9 50 1 68 -11 21 -12 19 -13 -22 l-2
-45 -8 49 c-11 64 -19 81 -29 70 -6 -5 -4 -41 4 -84 8 -41 14 -91 14 -110 l-1
-35 -10 35 c-10 34 -11 34 -19 12 -6 -15 -5 -31 2 -43 9 -18 8 -19 -18 -13
-38 9 -38 9 -19 48 20 43 21 98 1 136 -19 38 -31 38 -50 0 -19 -36 -19 -97 0
-130 18 -32 19 -51 1 -44 -8 3 -17 1 -21 -5 -13 -21 -24 -11 -14 13 8 16 8 29
1 42 -9 16 -11 14 -20 -16 l-10 -35 -1 35 c0 19 6 69 14 110 8 43 10 79 4 84
-10 11 -18 -6 -29 -70 l-8 -49 -2 45 c-1 41 -2 43 -13 22 -8 -18 -8 -35 1 -68
7 -24 11 -61 11 -82 -1 -20 -3 -28 -6 -17 -2 11 -6 31 -9 44 l-5 24 -15 -28
c-8 -15 -14 -33 -14 -41 0 -7 -4 -15 -9 -18 -5 -3 -4 15 1 40 7 31 7 49 0 56
-15 15 -41 3 -52 -24 -9 -23 -9 -23 -9 3 -1 18 6 29 24 37 15 7 25 20 25 32 0
24 -3 24 -40 5 -26 -13 -30 -21 -30 -58 0 -23 -5 -49 -10 -57 -7 -11 -8 -6 -4
18 4 21 3 32 -5 32 -6 0 -11 -9 -11 -20 0 -11 -4 -20 -10 -20 -5 0 -10 -8 -10
-17 0 -9 -3 -13 -7 -10 -3 4 0 19 7 33 12 22 12 27 0 34 -10 6 -23 1 -42 -17
-16 -15 -28 -23 -28 -19 0 12 54 66 65 66 6 0 29 18 50 40 41 42 41 51 0 24
-14 -9 -25 -14 -25 -12 0 5 75 56 133 92 16 10 26 20 23 23 -6 6 -113 -54
-122 -68 -3 -6 -17 -14 -30 -19 -13 -5 -29 -21 -34 -34 -5 -13 -13 -27 -18
-30 -6 -3 -2 12 9 33 10 22 27 45 36 50 16 9 15 10 -8 11 -32 0 -56 -25 -61
-64 -2 -18 -12 -34 -28 -43 -22 -13 -23 -13 -7 0 18 15 23 47 7 47 -5 0 -10
-4 -10 -8 0 -5 -19 -24 -41 -42 -37 -30 -40 -30 -25 -7 16 24 16 26 -1 30 -12
3 -9 5 10 6 15 0 27 6 27 12 0 8 -16 9 -47 6 l-48 -6 40 14 c22 7 47 14 56 14
9 1 23 9 30 18 13 15 11 16 -11 9 -14 -4 -40 -10 -59 -13 -19 -3 -53 -17 -75
-29 -23 -13 -45 -24 -51 -24 -5 0 14 14 44 30 30 17 61 30 70 30 13 0 14 2 2
9 -9 6 -24 6 -38 0 -35 -13 -42 -10 -13 6 14 8 43 15 65 16 l40 1 -39 8 c-53
10 -100 -2 -128 -33 -13 -15 -36 -29 -53 -32 -27 -5 -27 -4 7 11 21 9 40 24
43 34 3 10 18 23 33 29 l27 11 -30 -5 c-27 -5 -28 -4 -10 7 11 7 47 12 80 12
38 -1 51 1 35 6 -24 6 -24 7 -4 14 13 4 46 -2 82 -14 55 -19 65 -20 113 -8 29
7 55 19 57 27 5 14 1 14 -68 -4 -14 -3 -6 5 20 19 31 17 39 25 25 26 -11 0
-38 -9 -59 -21 -21 -11 -35 -15 -31 -9 9 14 -158 1 -209 -17 -21 -7 -57 -13
-79 -13 -28 0 -49 -7 -66 -22 l-26 -23 23 26 c16 18 38 29 67 33 24 4 49 14
55 21 15 19 13 19 -40 0 -23 -8 -56 -15 -73 -15 -17 0 -45 -11 -63 -25 -18
-14 -36 -25 -40 -25 -4 0 6 10 22 22 52 39 52 41 -10 35 -83 -8 -65 0 40 18
49 9 105 21 124 27 19 6 100 12 180 14 167 2 214 15 271 70 51 50 63 99 57
237 -11 233 -77 337 -177 280 -20 -11 -52 -24 -71 -28 -19 -3 -55 -20 -80 -37
l-45 -30 35 31 c19 17 53 36 75 43 22 6 47 18 55 26 13 12 8 14 -43 10 -44 -4
-61 -10 -72 -25 -8 -12 -29 -26 -47 -32 -31 -10 -32 -10 -13 5 l20 17 -20 -8
c-11 -4 -34 -11 -51 -16 -17 -5 -41 -20 -54 -34 -13 -14 -31 -25 -41 -25 -9 0
-22 -7 -29 -15 -7 -8 -17 -15 -22 -15 -17 0 1 17 37 34 19 9 35 23 35 31 0 8
-2 15 -5 15 -19 0 -83 -35 -112 -61 -19 -16 -37 -28 -40 -26 -7 8 72 84 107
102 43 22 24 36 -39 28 -26 -2 -56 -1 -69 4 -14 6 10 8 73 7 78 -1 93 2 84 13
-6 7 -26 14 -43 15 l-31 1 33 4 c21 3 44 -3 66 -17 27 -16 39 -18 60 -10 32
12 45 38 25 51 -8 5 -41 9 -74 9 -33 0 -67 5 -75 10 -11 8 -8 9 13 4 15 -3 39
-3 54 1 l28 7 -24 18 c-20 14 -40 17 -110 15 -59 -2 -78 0 -62 7 13 4 40 7 59
6 19 -2 37 2 39 8 5 14 -77 28 -110 19 -17 -5 -19 -4 -7 4 8 6 36 11 63 11 51
0 55 4 30 32 -18 20 -44 23 -76 7 -19 -9 -18 -7 3 10 l25 21 -40 1 c-40 2 -40
2 13 12 45 9 55 7 72 -8 11 -10 20 -13 20 -7 0 6 -24 24 -52 41 -65 38 -58 40
11 5 42 -22 53 -33 61 -65 9 -31 67 -99 85 -99 15 0 1 34 -27 66 -32 36 -32
37 -6 20 15 -10 41 -40 58 -67 19 -32 37 -49 50 -49 13 0 18 5 13 16 -4 12 1
11 28 -5 36 -22 103 -28 129 -11 13 8 11 14 -12 37 -22 22 -36 27 -77 27 -27
0 -48 3 -45 8 3 4 13 8 23 8 25 0 33 11 20 26 -7 9 -25 12 -52 8 -23 -3 -53
-1 -67 5 -24 10 -23 10 10 8 19 -1 35 3 36 8 0 13 -174 88 -203 87 -13 0 -20
4 -17 9 8 14 21 11 112 -22 46 -17 86 -29 88 -26 8 7 -59 67 -75 67 -14 0 -14
2 -1 10 13 8 13 9 0 14 -48 15 -73 15 -101 1 -24 -13 -36 -14 -57 -6 -27 11
-27 11 -2 6 14 -2 38 2 54 10 16 8 37 15 47 15 11 0 19 5 19 10 0 6 -26 11
-57 11 l-58 2 52 6 c28 4 55 10 59 14 12 11 -20 60 -48 74 -13 7 -33 23 -44
35 -19 23 -19 23 1 7 29 -23 105 -58 105 -49 0 5 -12 23 -27 41 -25 29 -25 31
-5 20 12 -6 28 -27 36 -45 8 -19 19 -37 25 -40 6 -4 11 -20 11 -36 0 -30 43
-90 55 -78 14 14 -17 109 -44 136 -45 45 -43 64 2 20 23 -22 48 -54 55 -72 11
-29 12 -28 7 24 l-5 55 15 -40 c8 -22 15 -67 15 -101 0 -53 3 -64 26 -85 l27
-24 -5 30 c-3 17 -2 39 2 50 7 15 9 10 9 -22 1 -44 17 -65 32 -42 5 8 6 22 3
33 -4 13 -2 16 6 11 8 -5 10 -23 6 -55 -6 -48 -6 -48 45 -94 28 -25 55 -46 60
-46 18 0 8 35 -18 65 -16 17 -11 14 10 -7 20 -20 37 -47 37 -59 0 -23 26 -59
43 -59 13 0 4 57 -18 105 -9 22 -14 37 -11 34 14 -13 54 -98 61 -128 7 -35 32
-52 45 -31 4 7 11 38 15 69 l7 56 -53 48 c-29 26 -67 52 -84 56 -21 7 -24 9
-9 10 11 1 41 -12 67 -29 66 -41 84 -39 52 6 -17 25 -53 40 -117 49 -61 8 -70
21 -11 16 l45 -3 -17 26 c-23 34 -48 40 -85 21 -17 -9 -39 -14 -48 -12 -13 4
-12 5 4 6 24 1 67 38 59 52 -8 12 -52 12 -60 -1 -3 -5 -16 -10 -28 -10 -20 1
-20 2 -4 11 27 16 20 29 -15 29 -18 0 -39 4 -47 9 -8 5 1 8 25 7 29 -1 39 3
39 14 0 10 -8 14 -25 12 -14 -2 -37 2 -50 7 -25 10 -25 10 5 11 26 1 27 3 10
10 -11 5 -38 9 -60 9 -22 1 -47 6 -55 11 -11 7 -6 8 17 4 17 -3 39 -1 50 5 16
9 15 10 -10 11 -19 0 -39 11 -57 30 -15 16 -38 34 -51 39 -22 9 -22 10 -3 10
11 1 33 -12 49 -29 16 -17 39 -30 52 -30 13 0 40 -7 60 -15 49 -21 52 -19 20
10 -15 14 -27 28 -27 31 0 10 82 -59 87 -73 8 -21 23 -15 23 10 0 13 -11 34
-25 47 -14 13 -25 27 -25 31 0 11 47 -37 60 -61 5 -10 10 -32 10 -48 0 -29 24
-61 36 -49 4 3 1 48 -5 99 -9 78 -14 96 -36 115 -18 17 -25 33 -24 56 l2 32 6
-32 c3 -17 18 -41 33 -53 16 -12 30 -35 34 -56 10 -52 28 -35 35 32 l6 59 1
-59 c1 -32 -3 -76 -9 -97 -10 -32 -9 -46 5 -84 24 -62 39 -58 32 8 l-6 52 15
-50 c8 -27 14 -61 15 -74 0 -25 26 -61 43 -61 5 0 7 20 3 48 l-6 47 15 -34 c8
-18 15 -43 15 -56 0 -26 24 -50 40 -40 29 18 -4 112 -67 188 -13 16 -23 34
-23 40 1 7 6 2 13 -9 14 -24 74 -94 81 -94 9 0 -17 76 -35 102 -11 14 -33 29
-49 33 -35 8 -64 45 -57 72 4 15 5 14 6 -4 0 -12 5 -25 11 -28 6 -4 8 7 5 27
-5 33 -5 33 6 6 6 -16 15 -28 20 -28 12 0 11 9 -7 62 -12 36 -21 48 -42 53
-15 4 -34 12 -42 20 -8 7 -25 16 -38 20 -13 4 -21 9 -19 12 3 2 26 -4 50 -15
52 -23 67 -19 34 10 l-22 19 32 -15 c17 -9 39 -26 47 -38 l16 -22 0 28 c0 16
2 27 5 24 3 -3 6 -27 7 -54 0 -27 5 -58 10 -68 10 -18 11 -18 20 -2 5 10 7 45
5 79 -3 34 -3 52 -1 40 8 -37 27 -27 22 12 -3 27 -1 32 9 23 17 -14 18 13 1
32 -8 8 -1 6 16 -4 20 -13 31 -15 39 -7z m-434 -199 c0 -10 -3 -8 -9 5 -12 27
-12 43 0 25 5 -8 9 -22 9 -30z m-1674 -165 c48 -87 92 -186 77 -170 -13 13
-192 332 -192 342 0 15 71 -92 115 -172z m4271 13 c-99 -179 -128 -220 -86
-125 43 98 158 292 168 282 2 -2 -35 -72 -82 -157z m-3810 33 c-9 -14 -286
-222 -285 -214 1 13 134 124 210 176 71 47 85 54 75 38z m3442 -73 c83 -64
168 -138 157 -138 -10 0 -273 199 -282 213 -10 17 55 -23 125 -75z m-1081 -84
c-3 -3 -12 -4 -19 -1 -8 3 -5 6 6 6 11 1 17 -2 13 -5z m-956 -111 c13 -16 12
-17 -3 -4 -10 7 -18 15 -18 17 0 8 8 3 21 -13z m479 13 c0 -2 -8 -10 -17 -17
-16 -13 -17 -12 -4 4 13 16 21 21 21 13z m-67 -61 c-3 -9 -8 -14 -10 -11 -3 3
-2 9 2 15 9 16 15 13 8 -4z m-630 -42 c-7 -2 -19 -2 -25 0 -7 3 -2 5 12 5 14
0 19 -2 13 -5z m920 0 c-7 -2 -19 -2 -25 0 -7 3 -2 5 12 5 14 0 19 -2 13 -5z
m-2202 -238 c-48 -68 -100 -139 -115 -157 l-28 -33 28 50 c45 83 182 265 200
265 2 0 -36 -56 -85 -125z m3529 5 c52 -70 133 -200 125 -200 -6 0 -87 110
-170 230 -67 98 -32 74 45 -30z m-2473 84 c-3 -3 -12 -4 -19 -1 -8 3 -5 6 6 6
11 1 17 -2 13 -5z m1370 0 c-3 -3 -12 -4 -19 -1 -8 3 -5 6 6 6 11 1 17 -2 13
-5z m-2779 -178 c46 -45 93 -94 105 -111 23 -33 -148 122 -228 206 l-50 52 45
-33 c25 -18 82 -70 128 -114z m4327 83 c-96 -97 -241 -227 -218 -194 39 54
252 253 273 255 2 0 -22 -27 -55 -61z m-607 -399 c31 -79 86 -279 79 -286 -2
-3 -14 28 -27 68 -85 268 -98 310 -90 302 5 -5 22 -43 38 -84z m-3193 48 c-35
-118 -107 -339 -110 -336 -11 10 60 254 95 331 16 33 24 36 15 5z m-328 -302
c122 -62 177 -99 93 -62 -78 34 -310 147 -310 151 0 10 121 -40 217 -89z
m4028 85 c-17 -15 -335 -164 -340 -159 -7 7 199 113 276 143 73 27 77 28 64
16z m-1332 -8 c-7 -2 -19 -2 -25 0 -7 3 -2 5 12 5 14 0 19 -2 13 -5z m-1413
-63 c-8 -5 -19 -10 -25 -10 -5 0 -3 5 5 10 8 5 20 10 25 10 6 0 3 -5 -5 -10z
m1215 0 c3 -6 -1 -7 -9 -4 -18 7 -21 14 -7 14 6 0 13 -4 16 -10z m-35 -90 c8
-5 11 -10 5 -10 -5 0 -17 5 -25 10 -8 5 -10 10 -5 10 6 0 17 -5 25 -10z
m-1899 -166 c-6 -86 -11 -170 -11 -186 0 -15 -5 -28 -11 -28 -9 0 -10 31 -5
113 7 123 26 271 33 263 3 -2 0 -75 -6 -162z m2709 2 c12 -130 12 -264 1 -226
-7 24 -13 97 -26 315 -7 117 11 50 25 -89z m-1880 147 c-8 -3 -26 -15 -40 -27
l-25 -21 24 28 c14 15 32 27 40 26 14 0 14 -1 1 -6z m80 -36 c0 -2 -10 -12
-22 -23 l-23 -19 19 23 c18 21 26 27 26 19z m-496 -672 c9 -92 -10 -34 -29 88
-8 58 -14 144 -14 193 l1 89 18 -155 c10 -85 21 -182 24 -215z m1891 81 c-9
-61 -21 -117 -26 -126 -7 -11 -9 -6 -5 20 2 19 13 114 23 210 18 170 18 173
21 90 2 -47 -4 -134 -13 -194z m872 258 c-7 -8 -356 -84 -382 -83 -54 1 190
63 305 78 36 5 69 9 74 10 5 0 7 -2 3 -5z m-3479 -24 c105 -22 228 -59 199
-59 -17 -1 -331 65 -352 73 -31 13 71 3 153 -14z m1157 -428 c42 -96 74 -176
72 -179 -8 -8 -103 192 -132 276 -45 133 -35 117 60 -97z m1032 71 c-40 -102
-116 -257 -123 -250 -3 3 30 84 73 181 81 184 109 223 50 69z m-1562 -92 c49
-8 49 -8 -26 -10 -135 -2 -387 13 -349 21 40 8 301 0 375 -11z m2410 10 c29
-5 -1 -9 -114 -14 -158 -7 -322 -7 -286 0 96 19 331 27 400 14z m-1846 -275
c-6 -7 -363 -105 -367 -101 -6 6 135 56 228 80 87 22 150 32 139 21z m1066
-26 c105 -27 220 -68 213 -76 -4 -3 -361 96 -367 102 -12 11 49 1 154 -26z"/>
<path d="M2470 3348 c-34 -77 -38 -138 -11 -162 21 -19 21 -19 22 10 1 16 2
45 2 64 0 20 2 26 4 13 2 -13 8 -23 13 -23 5 0 11 10 13 23 2 13 4 7 4 -13 0
-19 1 -48 2 -65 l2 -30 19 24 c22 26 25 62 9 112 -14 44 -42 99 -50 99 -4 0
-17 -24 -29 -52z"/>
<path d="M3180 1976 c0 -2 7 -7 16 -10 8 -3 12 -2 9 4 -6 10 -25 14 -25 6z"/>
</g>
</svg>
