<?xml version="1.0" standalone="no"?>
<!DOCTYPE svg PUBLIC "-//W3C//DTD SVG 20010904//EN"
 "http://www.w3.org/TR/2001/REC-SVG-20010904/DTD/svg10.dtd">
<svg version="1.0" xmlns="http://www.w3.org/2000/svg"
 width="2000.000000pt" height="2000.000000pt" viewBox="0 0 2000.000000 2000.000000"
 preserveAspectRatio="xMidYMid meet">
<metadata>
Created by potrace 1.14, written by Peter Selinger 2001-2017
</metadata>
<g transform="translate(0.000000,2000.000000) scale(0.100000,-0.100000)"
fill="#000000" stroke="none">
<path d="M3536 17658 c-83 -136 -345 -599 -410 -728 -251 -496 -311 -835 -215
-1212 67 -263 201 -522 357 -689 l68 -73 -69 -125 c-39 -69 -116 -220 -173
-336 l-102 -210 -7 70 c-50 531 -244 950 -614 1328 -97 99 -230 217 -244 217
-4 0 -11 -19 -17 -42 -6 -24 -42 -154 -80 -289 -192 -678 -238 -993 -195
-1309 25 -187 69 -312 168 -486 145 -255 312 -441 513 -572 l70 -46 -43 -170
c-49 -194 -113 -505 -140 -678 -10 -65 -20 -118 -24 -118 -3 0 -11 19 -18 43
-23 77 -102 261 -153 357 -171 322 -433 600 -751 797 -84 52 -362 193 -379
193 -11 0 -9 -515 2 -765 21 -437 73 -695 191 -944 63 -133 120 -212 238 -335
160 -164 304 -272 479 -360 97 -49 254 -106 291 -106 18 0 21 -6 21 -42 1
-241 34 -687 71 -962 11 -81 19 -150 17 -152 -2 -2 -35 38 -73 89 -291 382
-687 642 -1172 767 -109 29 -391 75 -400 66 -5 -4 100 -338 203 -644 184 -550
393 -891 664 -1086 108 -78 317 -183 457 -229 173 -58 280 -77 443 -83 l144
-5 66 -192 c67 -193 147 -400 215 -557 21 -47 43 -99 51 -117 14 -32 12 -31
-94 38 -276 181 -598 295 -931 330 -138 14 -426 7 -561 -15 -136 -22 -200 -36
-200 -47 0 -4 35 -57 78 -116 43 -59 135 -187 203 -283 473 -668 794 -930
1244 -1019 165 -33 336 -44 480 -32 122 11 270 38 329 61 16 6 33 7 37 3 4 -4
49 -71 101 -148 119 -178 274 -390 398 -547 54 -68 97 -124 96 -125 -1 -2 -42
13 -91 32 -483 190 -1039 197 -1535 20 -111 -40 -310 -127 -310 -136 0 -7 69
-68 469 -413 414 -357 771 -563 1091 -632 228 -48 577 -19 848 72 101 34 263
110 327 153 l30 21 60 -59 c137 -132 528 -468 693 -595 35 -26 61 -50 59 -52
-2 -2 -44 5 -93 16 -219 48 -556 65 -764 40 -294 -37 -602 -138 -872 -287 -98
-53 -292 -178 -308 -198 -9 -11 -1 -19 37 -41 26 -15 174 -102 328 -194 586
-349 846 -468 1185 -541 153 -34 419 -34 575 -1 150 32 353 100 482 164 209
101 450 285 440 335 -2 12 -3 23 -2 23 2 0 61 -33 132 -74 197 -113 441 -241
622 -327 161 -76 163 -78 125 -83 -339 -51 -610 -142 -853 -288 -220 -131
-460 -343 -629 -557 -89 -112 -89 -113 -17 -125 22 -4 171 -38 330 -76 532
-126 708 -153 1000 -154 333 0 516 45 763 190 231 136 478 367 588 550 10 17
25 13 230 -49 120 -36 262 -78 314 -93 93 -26 133 -44 96 -44 -30 0 -482 -154
-601 -205 -321 -137 -594 -316 -745 -488 l-28 -32 104 -93 c56 -50 107 -92
112 -92 4 0 24 16 43 36 18 20 66 62 104 94 265 217 625 371 1322 564 l271 76
218 -61 c816 -224 1208 -401 1458 -657 l59 -61 61 52 c33 29 83 73 110 99 l51
46 -50 52 c-251 259 -651 469 -1207 636 -71 21 -128 41 -128 44 0 3 55 20 123
39 67 19 208 60 312 93 105 32 193 58 196 58 4 0 34 -37 67 -83 161 -222 403
-421 667 -549 342 -166 787 -167 1480 -5 105 25 253 59 330 77 203 47 215 50
215 58 0 20 -198 248 -301 347 -328 317 -733 522 -1154 585 -153 22 -166 7
132 155 231 115 470 243 607 325 l38 23 -7 -22 c-6 -19 3 -32 55 -79 103 -94
227 -178 375 -251 154 -77 288 -125 470 -167 110 -26 136 -28 310 -28 158 0
207 4 290 22 353 78 615 200 1260 586 116 69 229 137 253 151 23 13 42 29 42
34 0 15 -239 167 -371 235 -245 127 -495 209 -751 246 -251 37 -568 25 -826
-31 -52 -11 -95 -19 -97 -17 -2 2 42 39 98 83 141 111 394 326 561 478 78 71
146 131 153 134 7 3 39 -11 72 -31 243 -148 621 -238 941 -223 200 9 369 55
580 160 237 117 479 294 881 643 113 99 228 198 255 221 l49 41 -97 46 c-194
92 -463 170 -687 202 -136 19 -404 21 -536 5 -186 -24 -404 -81 -573 -150 -62
-25 -63 -27 33 94 123 155 268 353 390 535 65 96 119 176 119 177 1 1 33 -7
71 -18 335 -93 796 -59 1089 80 229 110 454 306 695 606 115 142 524 715 517
722 -3 3 -67 16 -143 29 -197 35 -480 43 -663 19 -328 -41 -657 -164 -913
-341 -53 -36 -78 -49 -74 -37 3 10 33 81 67 158 61 140 194 488 244 641 l27
81 137 6 c470 19 933 249 1181 587 182 246 308 533 486 1105 43 138 84 264 92
282 7 18 13 41 13 52 0 24 -17 23 -230 -14 -567 -100 -1036 -386 -1358 -827
-31 -43 -57 -76 -58 -75 -1 1 7 59 16 129 39 271 67 634 73 917 l2 114 80 22
c220 59 443 192 654 391 280 264 408 551 467 1049 16 134 37 1033 25 1047 -10
11 -221 -89 -341 -162 -456 -275 -759 -646 -931 -1139 -18 -52 -34 -90 -35
-85 -2 5 -15 81 -29 169 -32 198 -84 441 -136 645 -36 141 -38 156 -23 165
334 202 644 629 718 989 26 125 35 288 25 441 -16 247 -61 467 -189 925 -43
157 -84 304 -90 327 -6 23 -15 45 -20 48 -12 7 -131 -95 -241 -206 -354 -358
-561 -793 -612 -1284 l-12 -120 -116 235 c-64 129 -141 280 -172 335 l-55 99
50 56 c214 232 361 554 409 889 15 109 7 287 -20 417 -48 233 -189 561 -391
909 -51 88 -131 226 -177 307 -47 82 -89 146 -94 143 -16 -11 -118 -162 -177
-265 -254 -443 -341 -948 -246 -1423 9 -43 14 -81 11 -83 -2 -2 -31 31 -65 73
-33 43 -85 107 -115 142 -48 56 -56 72 -62 120 -24 192 -146 446 -308 646 -66
80 -235 251 -317 320 -322 269 -722 429 -1165 466 -133 11 -358 9 -370 -3 -8
-7 347 -699 419 -817 233 -382 462 -615 718 -730 203 -91 423 -141 663 -150
l170 -6 127 -159 c71 -88 127 -160 125 -162 -1 -2 -34 8 -72 22 -39 14 -128
41 -200 59 -402 103 -825 82 -1214 -61 -104 -38 -381 -172 -420 -202 l-24 -19
34 -25 c669 -492 956 -665 1255 -757 163 -50 268 -64 434 -58 234 10 463 67
663 166 l97 48 54 -96 c54 -95 240 -464 269 -531 8 -19 31 -72 50 -117 l35
-81 -126 85 c-477 320 -1019 434 -1585 332 -102 -18 -307 -67 -316 -74 -1 -2
17 -25 41 -52 25 -26 134 -156 244 -288 631 -761 977 -976 1574 -978 170 -1
267 10 404 44 43 11 80 19 81 17 2 -2 24 -86 49 -188 52 -211 106 -475 134
-664 l20 -129 -52 59 c-286 331 -596 541 -979 663 -191 61 -384 93 -634 107
-152 8 -151 8 -109 -74 13 -26 67 -148 121 -272 53 -124 127 -288 164 -365
209 -436 436 -732 686 -890 199 -128 521 -229 763 -242 81 -5 105 -9 110 -22
8 -22 -15 -531 -33 -701 -20 -193 -54 -440 -64 -464 -6 -16 -11 -10 -26 30
-26 70 -130 276 -178 353 -266 428 -673 739 -1186 907 -93 30 -105 31 -98 2 3
-13 22 -165 42 -338 19 -173 47 -384 60 -469 62 -381 161 -670 304 -886 147
-224 477 -472 762 -572 43 -15 79 -33 79 -40 0 -21 -111 -335 -177 -503 -73
-182 -218 -509 -233 -524 -7 -7 -10 12 -10 55 0 160 -48 426 -111 614 -138
416 -401 766 -791 1058 -50 37 -93 65 -95 63 -8 -8 -133 -646 -157 -801 -88
-571 -46 -935 145 -1251 138 -229 333 -437 528 -565 l25 -16 -116 -170 c-64
-94 -155 -224 -204 -289 -117 -160 -355 -456 -361 -451 -2 3 3 45 11 93 109
643 -37 1237 -432 1758 -63 84 -152 186 -162 186 -4 0 -17 -23 -29 -50 -12
-28 -73 -159 -135 -293 -246 -526 -336 -771 -388 -1057 -28 -152 -29 -407 -4
-525 60 -272 215 -590 385 -790 28 -33 50 -64 48 -70 -4 -13 -226 -216 -381
-348 -146 -126 -498 -408 -503 -403 -2 2 8 36 23 77 44 122 83 266 111 409 31
163 43 494 24 657 -31 265 -103 511 -222 761 -61 130 -154 298 -169 307 -5 3
-37 -36 -71 -87 -34 -51 -110 -160 -169 -243 -236 -332 -364 -533 -470 -740
-175 -341 -249 -652 -221 -927 27 -259 94 -497 201 -709 l58 -117 -136 -78
c-257 -146 -837 -433 -950 -468 -19 -6 -10 8 38 66 141 167 307 452 378 648
87 239 121 421 129 676 7 229 -11 412 -63 642 l-16 73 -28 -18 c-16 -10 -86
-63 -157 -117 -70 -55 -191 -148 -268 -207 -395 -303 -646 -556 -787 -794
-134 -226 -186 -424 -195 -741 -6 -200 4 -301 44 -462 14 -56 24 -104 22 -106
-17 -13 -578 -176 -1012 -294 l-108 -30 -267 73 c-415 113 -838 239 -854 254
-4 3 1 33 11 66 104 336 66 834 -87 1140 -152 304 -415 572 -987 1005 -104 80
-214 164 -244 188 -29 24 -57 40 -61 35 -22 -26 -68 -302 -82 -490 -39 -539
137 -1084 495 -1528 36 -44 64 -81 62 -83 -4 -5 -257 109 -445 201 -234 114
-650 340 -650 353 0 2 27 56 59 121 156 310 231 705 190 999 -34 247 -150 538
-337 849 -94 156 -151 241 -359 537 -87 123 -173 246 -192 273 l-33 48 -34
-54 c-54 -86 -189 -365 -229 -473 -47 -127 -89 -288 -117 -446 -31 -179 -32
-519 0 -700 26 -156 70 -325 115 -453 20 -53 34 -97 33 -97 -2 0 -60 44 -130
99 -229 178 -469 382 -689 587 l-79 72 62 74 c167 198 309 484 375 758 26 104
31 353 11 489 -44 295 -144 578 -388 1101 -63 135 -127 271 -141 303 -14 31
-30 57 -34 57 -5 0 -36 -33 -69 -73 -303 -361 -480 -746 -539 -1171 -29 -207
-17 -564 26 -754 5 -25 8 -46 7 -47 -5 -5 -216 258 -333 414 -109 146 -330
466 -341 495 -4 10 8 23 34 40 144 91 330 282 453 466 130 194 193 352 225
572 22 153 15 504 -15 698 -25 164 -150 816 -162 848 -9 22 -10 22 -86 -34
-554 -407 -856 -939 -913 -1604 -7 -74 -13 -136 -14 -137 -5 -6 -161 348 -226
512 -38 94 -95 250 -129 348 -60 177 -60 178 -38 186 12 4 49 18 82 30 81 31
237 111 320 167 102 68 246 187 306 252 205 225 341 556 418 1022 17 102 66
496 98 793 l6 57 -116 -40 c-338 -116 -607 -276 -835 -495 -131 -126 -206
-214 -298 -352 -61 -91 -175 -308 -218 -413 l-19 -45 -8 45 c-40 202 -78 614
-86 916 l-6 241 109 6 c281 15 630 137 834 291 151 113 292 275 427 490 83
132 238 445 359 726 53 124 107 246 120 272 13 26 24 53 24 59 0 9 -34 10
-132 5 -511 -26 -887 -153 -1248 -419 -102 -76 -301 -264 -371 -352 -24 -30
-45 -53 -47 -51 -18 18 173 944 200 971 3 3 40 -4 84 -14 137 -34 234 -44 399
-44 261 1 441 36 625 124 266 127 526 349 833 714 60 72 123 145 139 163 41
46 230 271 247 294 8 10 11 21 8 24 -12 12 -190 55 -302 74 -349 56 -631 47
-930 -30 -242 -63 -506 -188 -717 -341 -38 -27 -68 -47 -68 -44 0 27 193 429
322 671 l81 151 111 -52 c133 -63 262 -106 416 -137 94 -18 147 -23 290 -23
160 0 184 3 284 28 328 86 572 222 1168 653 76 54 156 112 179 128 l41 29 -23
18 c-13 9 -75 44 -139 77 -537 279 -1089 326 -1652 143 -65 -22 -118 -36 -118
-33 0 3 53 70 118 150 64 79 122 150 127 157 7 8 63 14 185 18 200 6 307 26
495 88 222 74 378 172 542 342 205 212 356 453 656 1052 l106 210 -37 8 c-92
21 -470 -7 -657 -49 -490 -109 -932 -408 -1241 -841 -119 -166 -211 -379 -231
-533 -9 -64 -10 -67 -127 -208 -65 -78 -119 -142 -120 -142 -2 0 5 42 15 93
84 437 22 879 -181 1292 -52 106 -231 395 -244 395 -3 0 -12 -10 -20 -22z
m2234 -352 c0 -3 -140 -100 -310 -218 -845 -581 -957 -655 -972 -640 -13 13
-7 18 196 180 347 277 720 519 984 638 103 47 102 46 102 40z m8696 -12 c204
-84 536 -283 814 -487 143 -105 430 -337 430 -347 0 -5 -4 -11 -9 -15 -10 -6
-380 239 -786 520 -126 88 -290 201 -364 252 -74 51 -132 93 -129 93 3 0 23
-7 44 -16z m2173 -1004 c13 -475 14 -982 2 -960 -10 18 -35 214 -58 460 -12
130 -17 285 -17 520 0 322 5 408 36 607 l13 78 6 -150 c4 -82 12 -332 18 -555z
m-13018 411 c30 -295 4 -931 -53 -1306 l-12 -80 -9 85 c-9 87 18 1472 30 1540
6 31 8 26 19 -44 7 -43 18 -131 25 -195z m1677 -1288 c45 -3 81 -8 79 -9 -7
-7 -1214 -155 -1464 -179 -62 -6 -77 1 -50 23 6 6 93 26 192 46 488 97 955
142 1243 119z m10192 -18 c211 -23 387 -50 628 -96 172 -33 215 -45 223 -60
11 -22 19 -22 -112 -9 -164 17 -1251 148 -1412 172 -7 1 15 5 48 9 90 11 461
1 625 -16z m-13080 -355 c109 -272 218 -713 284 -1150 35 -227 41 -290 28
-290 -5 0 -12 10 -15 23 -3 12 -30 119 -61 237 -49 192 -316 1338 -316 1357 1
11 36 -67 80 -177z m15310 -466 c-140 -605 -221 -930 -241 -964 -28 -49 16
280 82 615 75 382 167 693 276 938 14 31 27 56 28 55 2 -2 -64 -291 -145 -644z
m-13195 -463 c-25 -22 -1504 -596 -1513 -587 -14 15 37 47 196 124 492 238
892 383 1272 461 25 5 47 9 50 10 2 1 0 -3 -5 -8z m11387 -47 c223 -56 544
-172 823 -297 156 -70 408 -193 430 -210 41 -32 2 -29 -102 8 -166 58 -1372
531 -1383 542 -10 11 98 -10 232 -43z m-14273 -1309 c156 -219 270 -414 435
-745 118 -237 240 -509 233 -516 -4 -4 -133 201 -210 331 -55 94 -637 1145
-637 1151 0 12 105 -118 179 -221z m17098 218 c-2 -5 -143 -258 -312 -563
-358 -645 -519 -919 -531 -907 -7 7 135 325 233 522 185 369 362 655 551 888
47 58 73 84 59 60z m-14867 -457 c-27 -25 -812 -629 -1025 -788 -115 -87 -215
-158 -222 -158 -30 0 10 50 124 151 374 335 699 576 998 738 135 74 149 80
125 57z m12685 -114 c106 -63 295 -192 424 -290 267 -202 601 -496 601 -529 0
-21 -5 -19 -66 24 -135 94 -1194 910 -1194 919 0 6 142 -69 235 -124z m179
-2027 c185 -219 388 -509 575 -823 81 -136 106 -193 84 -192 -18 1 -341 451
-926 1290 -31 44 188 -181 267 -275z m-13012 263 c-5 -7 -162 -229 -347 -493
-441 -627 -569 -798 -573 -767 -7 45 282 506 493 787 118 158 300 371 378 443
44 40 71 56 49 30z m-2263 -372 c204 -144 516 -427 752 -682 170 -184 318
-355 319 -367 0 -17 -222 179 -435 383 -394 376 -805 772 -805 776 0 6 65 -36
169 -110z m17451 111 c0 -2 -219 -213 -487 -469 -469 -448 -707 -667 -747
-690 -18 -10 -18 -8 2 18 54 76 305 349 486 529 252 251 426 400 635 544 100
68 111 75 111 68z m-14951 -1852 c-150 -484 -331 -1038 -357 -1095 -25 -57
-26 -12 -2 103 87 412 231 886 351 1160 47 106 140 289 145 285 1 -2 -60 -206
-137 -453z m12326 70 c105 -262 217 -637 294 -987 44 -198 45 -208 33 -208
-10 0 -20 26 -93 240 -65 191 -419 1321 -418 1336 1 19 134 -257 184 -381z
m-14305 -660 c313 -90 739 -288 1182 -548 121 -71 158 -100 145 -114 -8 -7
-323 140 -883 412 -313 153 -571 279 -573 281 -8 8 9 4 129 -31z m16358 30
c-6 -7 -668 -331 -991 -486 -236 -113 -447 -209 -461 -209 -4 0 -2 8 3 19 17
31 336 214 627 360 298 148 632 278 823 320 2 1 2 -1 -1 -4z m-3084 -690 c79
-339 126 -905 112 -1355 -7 -189 -15 -251 -30 -204 -14 50 -44 431 -86 1114
-16 267 -32 508 -34 535 -7 73 7 37 38 -90z m-10277 33 c-4 -51 -23 -343 -42
-648 -44 -693 -68 -960 -85 -960 -15 0 -20 81 -20 350 0 408 22 725 71 1015
22 130 69 335 77 335 3 0 2 -42 -1 -92z m1457 -1948 c83 -748 109 -1004 104
-1052 -14 -144 -109 320 -168 827 -24 198 -38 667 -25 819 4 48 8 86 10 84 2
-2 37 -307 79 -678z m7422 240 c-7 -301 -32 -544 -92 -905 -54 -325 -76 -414
-104 -415 -9 0 -1 107 25 375 36 356 146 1338 153 1355 13 34 23 -191 18 -410z
m-10588 215 c349 -36 807 -138 1236 -275 138 -43 146 -47 146 -59 0 -8 -22 -6
-220 30 -102 18 -1440 305 -1465 314 -28 10 173 3 303 -10z m13957 9 c-42 -16
-1417 -308 -1575 -334 -36 -6 -76 -13 -89 -16 -21 -5 -23 -3 -11 10 19 24 340
122 657 201 251 62 539 113 755 134 86 9 281 12 263 5z m-9232 -1239 c63 -143
183 -413 267 -599 152 -342 300 -700 300 -727 0 -50 -330 582 -451 862 -77
182 -148 374 -187 509 -38 131 -62 234 -52 223 4 -4 60 -125 123 -268z m4313
158 c-94 -370 -308 -862 -597 -1373 -26 -47 -55 -94 -63 -105 -19 -23 32 122
93 270 83 201 586 1324 589 1316 2 -5 -8 -53 -22 -108z m-6496 -697 c276 -25
618 -70 629 -83 9 -9 -785 5 -1149 21 -184 8 -429 18 -544 22 -116 4 -201 10
-190 14 18 7 244 36 344 44 110 9 747 -4 910 -18z m9520 14 c245 -21 386 -48
255 -50 -38 0 -281 -9 -540 -21 -491 -21 -1295 -36 -1284 -25 19 20 473 71
879 99 112 8 586 6 690 -3z m-6947 -1060 c14 -13 -174 -69 -948 -281 -280 -77
-531 -146 -557 -154 -147 -43 73 62 333 160 241 90 558 177 914 250 196 41
237 45 258 25z m3592 -5 c255 -46 647 -145 882 -224 203 -68 503 -194 490
-207 -3 -3 -160 37 -349 90 -188 52 -458 126 -598 165 -140 39 -331 93 -423
121 -92 27 -171 50 -175 51 -4 0 7 7 23 14 17 8 37 12 45 10 8 -2 56 -11 105
-20z"/>
<path d="M9750 15241 c-640 -319 -1277 -585 -1773 -740 -575 -179 -944 -257
-2047 -432 -146 -23 -280 -48 -299 -55 l-34 -14 6 -353 c12 -688 83 -1990 133
-2427 166 -1474 733 -2931 1602 -4125 592 -813 1358 -1514 2152 -1970 207
-119 452 -242 497 -249 36 -7 58 0 191 59 82 37 173 81 201 98 28 18 150 93
272 167 266 163 394 262 960 751 210 181 567 537 737 734 159 185 490 636 649
885 212 332 416 693 524 927 300 651 474 1182 653 1988 120 540 147 795 206
1910 35 674 66 1601 54 1614 -9 9 -360 74 -659 121 -744 118 -1090 190 -1555
327 -219 64 -651 217 -875 311 -104 43 -208 86 -230 94 -83 33 -697 319 -872
407 -138 68 -192 91 -220 90 -27 0 -104 -33 -273 -118z m109 -1600 c11 -16 38
-36 58 -46 21 -10 48 -27 61 -38 l22 -20 23 20 c12 12 40 30 61 42 22 11 50
33 62 48 35 44 41 17 7 -31 -26 -36 -53 -117 -53 -156 0 -44 89 44 126 124 17
36 22 42 18 21 -3 -16 -21 -63 -40 -104 -41 -88 -50 -137 -34 -184 26 -82 90
-47 90 49 0 52 11 71 24 39 3 -8 8 -44 12 -80 6 -59 5 -68 -19 -103 -15 -20
-29 -51 -32 -67 -6 -27 38 -281 49 -293 10 -9 36 20 68 77 31 53 33 62 35 166
2 127 12 283 19 305 11 33 27 -25 32 -117 3 -51 8 -96 12 -98 4 -3 18 19 29
49 27 66 69 107 141 139 30 13 73 40 94 61 39 35 56 44 56 28 0 -16 -74 -94
-111 -118 -42 -26 -50 -49 -21 -59 29 -9 138 30 176 62 24 22 47 32 85 36 28
3 61 13 73 22 40 28 55 16 19 -15 -22 -19 -51 -32 -80 -36 -35 -5 -58 -18 -95
-51 -63 -57 -106 -78 -195 -98 -39 -9 -73 -20 -76 -25 -3 -5 -16 -44 -29 -87
-13 -43 -43 -127 -65 -186 -44 -115 -44 -137 2 -137 32 0 56 29 73 89 21 77
35 111 45 111 17 0 16 -17 -2 -100 -11 -47 -22 -98 -25 -115 l-5 -30 34 38
c26 28 36 50 41 89 9 62 24 94 38 80 23 -23 -30 -207 -70 -244 -40 -37 -61
-46 -153 -62 -46 -8 -92 -18 -101 -21 -16 -6 -113 -155 -151 -230 -41 -82 -80
-256 -60 -268 14 -9 24 2 87 90 32 45 80 100 107 123 27 22 67 72 89 109 23
38 50 77 60 86 35 31 24 -7 -20 -73 -22 -33 -40 -65 -40 -72 0 -6 -27 -39 -59
-73 -44 -46 -71 -87 -103 -157 -25 -52 -63 -117 -86 -143 -23 -26 -45 -59 -48
-73 -4 -14 -4 -72 -2 -130 4 -82 9 -108 23 -124 22 -24 55 -26 96 -4 37 18 55
58 64 139 10 86 23 133 50 174 13 20 33 78 45 129 12 50 26 92 32 92 6 0 8
-10 5 -22 -3 -13 -13 -63 -22 -113 -10 -49 -23 -102 -31 -117 -18 -35 -18 -90
1 -134 l15 -35 30 17 c16 10 53 42 82 71 l52 52 12 138 c7 82 19 154 29 177 9
21 23 78 31 125 17 96 23 110 35 88 9 -15 1 -93 -22 -222 -12 -68 -8 -125 10
-154 8 -13 12 -13 26 -1 40 34 145 294 145 362 0 23 -19 98 -41 167 -48 147
-57 237 -40 404 18 181 30 163 28 -43 -2 -184 -2 -185 26 -241 53 -109 76
-102 95 30 11 79 37 148 70 186 9 11 52 51 95 89 100 89 109 107 109 215 0 47
3 90 5 95 13 21 23 -27 23 -112 0 -114 -8 -131 -106 -232 -40 -42 -80 -91 -88
-111 -9 -22 -17 -89 -21 -175 -4 -76 -12 -157 -17 -179 -13 -52 -31 -205 -32
-275 -1 -51 1 -55 23 -58 26 -4 83 44 107 90 8 15 18 74 23 132 13 144 35 191
134 280 l77 68 0 66 c0 62 1 66 37 96 65 54 101 95 155 171 28 41 54 73 56 70
13 -13 -134 -208 -184 -243 l-45 -32 3 -69 2 -70 -75 -73 c-76 -74 -99 -116
-99 -182 0 -37 26 -96 42 -96 7 0 32 30 55 68 52 83 104 135 190 187 82 49 95
67 134 180 37 105 65 165 79 165 6 0 3 -17 -6 -37 -9 -21 -27 -75 -39 -119
-35 -127 -50 -150 -132 -211 -67 -49 -113 -106 -99 -121 4 -3 48 15 99 41 108
54 173 73 281 82 44 3 92 13 108 21 15 8 51 46 78 84 55 75 94 99 193 121 95
20 90 -7 -8 -36 -74 -22 -113 -50 -143 -102 -62 -107 -118 -141 -267 -162 -61
-9 -115 -28 -115 -41 0 -8 158 -23 235 -22 28 0 74 10 104 22 69 27 91 11 24
-18 -85 -36 -132 -44 -214 -37 -65 6 -86 4 -134 -14 -31 -12 -77 -21 -103 -21
-27 0 -57 -6 -67 -14 -17 -12 -18 -16 -5 -31 12 -14 25 -16 68 -12 64 7 124
-2 119 -17 -2 -6 -14 -12 -28 -14 -13 -1 -53 -10 -88 -19 -55 -14 -72 -14
-133 -3 -61 12 -74 12 -97 -1 -20 -12 -26 -22 -26 -49 0 -32 4 -37 50 -60 75
-37 137 -34 203 9 64 41 82 32 27 -15 -73 -62 -95 -68 -200 -54 -51 7 -98 9
-104 6 -13 -8 -14 -55 -3 -74 5 -7 28 -18 53 -25 28 -8 45 -19 47 -31 4 -17
-3 -18 -66 -14 -66 3 -72 6 -117 47 -44 40 -50 43 -87 37 -57 -9 -105 -31
-117 -54 -22 -41 91 -148 183 -173 32 -9 60 -7 133 7 51 9 95 15 98 12 3 -3
-37 -17 -89 -31 -113 -32 -156 -27 -265 28 -54 27 -83 35 -123 35 -68 0 -96
-18 -176 -108 l-63 -71 26 -17 c22 -14 41 -16 133 -10 59 4 126 9 150 12 24 4
42 2 42 -3 0 -15 -40 -30 -131 -48 -46 -9 -97 -20 -114 -25 -16 -5 -74 -14
-128 -19 -84 -8 -108 -15 -165 -46 -37 -20 -82 -51 -101 -68 -39 -37 -81 -119
-81 -159 0 -24 4 -28 28 -28 15 0 51 15 80 33 28 17 96 60 149 93 128 80 182
104 237 104 32 0 67 12 132 44 49 25 90 43 91 42 6 -5 -87 -67 -129 -86 -24
-11 -60 -20 -81 -20 -21 0 -52 -6 -70 -14 -65 -27 -214 -131 -287 -200 -41
-40 -96 -89 -122 -109 -59 -47 -63 -68 -49 -283 16 -235 36 -288 115 -301 30
-5 42 -1 61 17 29 27 38 55 60 174 20 111 31 137 88 214 27 37 56 93 72 139
14 43 31 85 38 95 7 9 42 33 77 54 36 20 89 62 117 93 29 31 53 50 53 43 0
-24 -84 -104 -152 -143 -75 -44 -77 -47 -108 -139 -12 -36 -44 -107 -71 -159
l-50 -95 3 -89 c4 -118 15 -126 92 -73 30 21 62 49 72 63 9 14 23 71 30 125
20 144 51 197 153 262 106 68 134 106 161 217 22 93 59 203 65 197 7 -7 -75
-311 -90 -334 -8 -12 -36 -40 -62 -61 -134 -107 -165 -160 -144 -241 7 -24 18
-42 26 -42 21 0 389 323 403 354 17 37 15 71 -8 168 -30 123 -27 156 16 212
42 55 69 51 35 -5 -27 -44 -26 -84 2 -139 32 -65 60 -62 100 10 l31 54 6 206
c4 116 11 213 17 224 8 14 11 -43 12 -219 1 -195 -2 -248 -15 -287 -8 -26 -14
-54 -12 -60 6 -17 130 103 167 161 46 72 55 129 35 228 -9 45 -14 102 -11 125
10 87 35 194 55 238 12 25 26 71 32 103 6 31 16 57 22 57 16 0 3 -103 -22
-172 -25 -71 -29 -218 -6 -218 13 0 67 123 82 189 13 53 49 95 141 163 98 73
127 107 137 163 4 18 14 39 22 46 14 12 15 8 9 -37 -12 -81 -32 -114 -114
-191 -46 -42 -88 -92 -101 -117 -53 -110 -117 -403 -93 -427 16 -16 49 7 105
73 87 103 98 125 98 201 0 84 18 129 75 187 34 35 49 61 65 115 20 65 28 76
103 147 104 98 134 102 40 6 -79 -82 -86 -93 -112 -178 -10 -33 -33 -82 -51
-110 -17 -27 -30 -55 -28 -61 4 -12 94 95 116 137 16 30 102 73 170 85 79 15
106 31 152 94 37 50 60 68 60 47 0 -14 -55 -95 -83 -122 -14 -14 -58 -38 -99
-54 -40 -16 -79 -33 -87 -39 -23 -19 -111 -154 -132 -204 -26 -62 -20 -73 38
-73 26 0 86 -7 133 -15 124 -22 188 -19 275 11 42 14 79 24 82 20 3 -3 -25
-20 -63 -38 -69 -33 -69 -33 -229 -33 -169 -1 -216 -7 -236 -31 -20 -24 4 -37
82 -45 58 -7 84 -16 142 -51 92 -55 159 -61 289 -25 81 23 91 24 135 11 l48
-14 -50 5 c-40 4 -69 -1 -135 -25 -127 -44 -191 -42 -298 12 l-83 41 -127 -16
c-196 -24 -222 -42 -132 -91 28 -15 50 -29 50 -32 0 -2 -25 -4 -55 -3 -45 2
-62 -3 -97 -26 -40 -27 -239 -225 -247 -247 -6 -17 55 1 259 77 107 40 213 78
235 85 22 7 76 28 119 48 l80 35 50 -16 c28 -9 61 -19 74 -22 23 -7 29 -20 12
-30 -5 -3 -36 0 -69 6 l-60 13 -168 -81 c-92 -45 -244 -108 -338 -141 -238
-84 -255 -91 -255 -111 0 -10 11 -28 25 -41 25 -23 26 -23 124 -11 95 12 161
9 161 -9 0 -12 -28 -20 -73 -20 -23 0 -58 -5 -77 -10 -132 -35 -124 -35 -202
-7 -87 32 -107 33 -157 8 -50 -26 -107 -80 -95 -91 5 -4 36 -16 69 -25 138
-38 152 -40 238 -26 146 22 167 24 167 13 0 -12 -109 -39 -214 -52 -47 -6
-100 -5 -156 2 -82 10 -88 10 -188 -21 -94 -29 -108 -37 -167 -92 -72 -68 -84
-92 -61 -118 34 -38 237 -78 331 -66 30 3 72 19 105 39 30 18 72 39 92 45 28
9 45 25 67 62 33 53 51 62 51 27 0 -27 -35 -106 -57 -130 -21 -23 -10 -23 80
2 87 23 106 42 198 197 59 99 91 137 195 234 22 20 55 54 75 77 37 41 79 70
79 54 0 -4 -50 -60 -112 -122 -83 -86 -119 -131 -141 -178 -35 -75 -47 -142
-25 -142 42 0 274 194 301 252 9 18 22 75 31 126 8 52 21 104 29 116 9 14 62
44 134 75 65 29 127 61 138 71 26 23 120 70 141 70 26 0 -2 -27 -50 -49 -23
-10 -69 -36 -101 -58 -33 -23 -85 -53 -115 -68 -69 -34 -100 -62 -100 -91 0
-41 20 -36 81 20 64 60 87 67 157 47 18 -5 76 -15 130 -21 127 -14 147 -19
135 -31 -5 -5 -65 -13 -131 -16 -67 -3 -122 -9 -122 -12 0 -3 29 -28 65 -56
53 -41 74 -51 117 -56 74 -9 171 -30 183 -41 11 -10 -38 -2 -112 18 -28 8 -70
14 -93 14 -28 0 -60 10 -94 29 -41 23 -67 30 -134 34 l-83 5 -55 -85 c-43 -64
-54 -87 -45 -96 8 -8 71 -14 179 -17 l167 -5 100 -47 c88 -41 111 -47 193 -53
53 -4 92 -12 92 -18 0 -18 -163 0 -237 26 -37 14 -94 35 -127 47 -57 21 -61
21 -160 5 -55 -9 -130 -21 -166 -26 -89 -14 -98 -20 -80 -55 8 -14 30 -34 48
-42 31 -15 37 -15 102 7 77 26 97 25 188 -13 37 -16 97 -31 149 -37 98 -11
213 -38 213 -49 0 -5 -26 -2 -57 6 -32 7 -101 18 -153 24 -52 5 -132 22 -177
37 l-82 27 -69 -32 c-84 -39 -132 -41 -212 -7 -33 14 -72 25 -88 25 -31 0
-201 -116 -202 -137 0 -21 39 -34 135 -46 91 -10 95 -10 153 16 33 15 65 27
72 27 26 0 1 -24 -60 -56 l-65 -34 -203 0 c-179 0 -207 -2 -240 -19 -20 -10
-45 -28 -55 -39 -17 -19 -17 -23 -3 -50 8 -16 33 -44 55 -61 102 -81 204 -92
284 -32 158 119 185 126 329 87 123 -34 180 -33 323 5 65 16 127 29 139 27 37
-5 -276 -83 -330 -82 -28 1 -92 11 -144 23 -89 21 -96 22 -136 6 -45 -17 -119
-89 -109 -105 10 -16 54 -12 131 11 l70 21 119 -27 c178 -40 202 -41 263 -15
64 27 107 24 176 -16 63 -35 44 -44 -21 -10 -58 32 -76 32 -149 5 -50 -19 -70
-21 -148 -15 -50 3 -123 11 -162 18 -70 11 -72 11 -118 -16 -62 -36 -58 -54
19 -81 66 -23 113 -51 221 -130 58 -43 73 -61 89 -101 23 -63 40 -83 91 -105
87 -39 79 -72 -9 -39 -73 28 -103 52 -132 111 -23 44 -34 53 -105 89 -140 70
-278 108 -295 80 -3 -5 0 -28 6 -50 13 -44 50 -80 81 -80 32 0 101 -40 151
-88 26 -26 47 -50 47 -54 0 -18 -22 -6 -75 41 -46 40 -68 52 -113 61 -86 17
-108 28 -138 71 -58 84 -164 148 -283 169 -34 6 -92 27 -128 46 -36 19 -73 34
-84 34 -38 0 -18 -30 39 -59 61 -31 129 -87 119 -98 -4 -3 -28 11 -54 31 -26
20 -59 39 -73 42 -73 16 -93 29 -152 95 -34 37 -76 75 -94 84 -54 26 -184 48
-289 49 -88 1 -100 -1 -103 -17 -5 -22 44 -68 100 -95 24 -11 81 -27 127 -36
95 -18 106 -24 271 -155 134 -106 187 -134 312 -163 51 -12 87 -23 80 -26 -17
-5 -197 42 -253 67 -25 11 -99 62 -165 112 -148 113 -171 125 -264 132 -95 8
-140 24 -260 91 -135 76 -156 82 -231 68 -228 -42 -338 -207 -414 -617 -75
-407 -84 -828 -24 -1046 86 -311 343 -503 749 -560 52 -7 248 -13 510 -14 458
-2 435 0 650 -63 58 -17 132 -34 165 -37 33 -4 98 -16 144 -26 47 -11 146 -29
220 -40 144 -21 291 -57 291 -71 0 -13 -39 -9 -150 17 -124 29 -186 32 -212 9
-17 -16 -22 -15 -77 15 -42 22 -72 31 -105 31 -29 0 -45 -4 -41 -10 3 -5 17
-10 31 -10 37 0 111 -41 189 -105 39 -32 94 -74 123 -93 28 -19 52 -39 52 -44
0 -15 -93 38 -166 95 -112 88 -131 95 -279 106 -138 11 -200 26 -279 66 -51
26 -129 34 -141 15 -9 -14 43 -59 93 -82 24 -11 87 -24 140 -30 169 -17 156
-11 254 -106 91 -88 118 -122 98 -122 -6 0 -49 36 -95 80 -46 44 -96 85 -111
90 -16 6 -84 10 -153 9 -124 -2 -128 -2 -256 40 -142 47 -203 57 -430 70 -82
5 -163 14 -180 20 -58 20 -181 38 -204 30 -18 -7 -20 -12 -11 -28 16 -30 28
-35 99 -34 47 1 59 -1 41 -7 -14 -4 -50 -8 -81 -9 -58 -1 -55 -2 -158 72 -21
16 -63 35 -92 43 -61 16 -175 19 -184 4 -7 -12 46 -40 76 -40 13 0 52 -17 88
-39 36 -21 102 -54 145 -72 90 -38 76 -52 -18 -19 -33 11 -66 20 -75 20 -9 0
-36 11 -61 24 -40 21 -54 23 -120 19 -41 -3 -79 -9 -84 -13 -5 -5 3 -20 16
-33 64 -64 206 -106 383 -114 133 -6 187 4 232 41 51 42 89 55 199 67 l109 12
54 -27 c37 -19 50 -31 43 -38 -7 -7 -26 -5 -60 7 -49 18 -51 18 -106 -5 -31
-12 -56 -23 -56 -24 0 -1 35 -3 78 -4 42 -1 95 -2 117 -3 22 -1 58 5 80 14 38
14 48 14 140 -4 54 -11 118 -30 141 -43 24 -13 73 -34 110 -46 74 -23 164 -72
147 -77 -6 -2 -38 9 -70 25 -32 17 -79 35 -103 41 -25 7 -66 21 -92 31 -56 24
-165 28 -135 6 10 -8 39 -17 65 -21 77 -11 128 -47 162 -114 39 -79 72 -103
187 -141 191 -63 207 -87 23 -34 -175 50 -227 81 -256 149 -20 48 -54 70 -146
95 -87 23 -133 27 -313 22 -104 -2 -149 -12 -132 -28 4 -4 49 -11 99 -15 123
-10 206 -25 232 -42 18 -11 85 -40 185 -78 16 -7 21 -13 14 -20 -10 -10 -10
-11 -176 51 -81 30 -94 32 -150 24 -45 -7 -62 -13 -62 -24 0 -11 15 -16 56
-20 47 -4 74 -16 177 -78 66 -41 171 -96 232 -122 120 -52 144 -66 92 -57 -49
10 -160 61 -313 143 -132 72 -137 74 -207 74 -50 0 -87 6 -124 21 -29 12 -76
27 -105 34 -62 15 -79 6 -58 -34 15 -30 42 -46 100 -60 128 -32 175 -45 220
-62 28 -11 68 -19 90 -19 48 0 79 -15 53 -25 -18 -7 -60 -4 -226 16 -92 11
-104 11 -119 -3 -9 -9 -13 -24 -10 -32 12 -30 56 -39 137 -29 103 13 188 6
200 -17 5 -9 48 -48 96 -86 47 -37 81 -70 75 -72 -5 -2 -49 26 -97 63 -118 90
-135 98 -198 90 -73 -9 -116 -24 -116 -41 0 -8 4 -14 10 -14 5 0 20 -21 32
-47 17 -35 37 -57 73 -80 28 -17 59 -39 70 -47 18 -14 15 -14 -20 0 -60 24
-125 73 -147 110 -11 19 -33 37 -51 44 -39 13 -80 49 -136 118 -24 28 -49 52
-57 52 -18 0 -44 -51 -44 -86 0 -37 50 -81 147 -132 60 -31 89 -54 126 -99 68
-84 58 -100 -14 -20 -49 54 -79 76 -158 117 -53 27 -110 64 -126 80 -28 29
-30 36 -30 113 -1 68 -5 90 -27 132 -34 66 -68 99 -119 114 -55 16 -143 26
-165 17 -15 -6 -15 -9 5 -30 12 -12 43 -33 69 -45 54 -25 88 -76 116 -173 9
-32 30 -74 48 -93 33 -38 33 -54 0 -36 -30 16 -58 60 -93 143 -37 89 -57 108
-114 108 -39 0 -49 6 -129 80 -47 44 -91 80 -98 80 -6 0 -59 31 -117 69 -128
82 -159 99 -196 103 -41 4 -43 -22 -5 -65 31 -36 72 -59 165 -92 27 -10 70
-37 95 -61 25 -23 66 -52 91 -63 26 -12 64 -37 85 -55 22 -18 57 -42 80 -54
40 -20 71 -48 62 -57 -7 -8 -121 50 -156 80 -30 25 -181 89 -190 81 -5 -5 63
-56 74 -56 6 0 75 -63 154 -140 125 -121 153 -144 204 -162 47 -17 65 -31 92
-68 18 -25 56 -66 83 -92 37 -33 51 -53 51 -72 0 -27 -16 -36 -22 -12 -2 8
-42 50 -90 94 -83 78 -88 81 -119 72 -43 -13 -46 -16 -54 -76 -6 -47 -4 -53
19 -72 16 -12 26 -30 26 -46 0 -15 7 -41 16 -57 8 -17 14 -35 12 -41 -5 -13
-58 74 -58 93 0 7 -15 25 -32 40 -29 24 -33 34 -38 90 -5 60 -6 64 -30 64 -24
0 -25 -2 -24 -60 0 -33 4 -94 8 -135 12 -104 -5 -83 -43 55 -35 124 -38 169
-16 222 14 32 14 39 0 59 -19 30 -62 61 -162 119 -96 55 -118 55 -110 -3 18
-130 31 -148 129 -178 l58 -17 0 -43 c0 -23 4 -53 9 -66 4 -13 12 -53 15 -90
10 -93 -9 -89 -24 5 -7 39 -20 91 -30 114 -15 34 -25 44 -57 52 -88 24 -117
30 -125 25 -16 -10 -35 -59 -41 -103 -5 -41 -3 -47 30 -77 l35 -32 -13 -52
c-13 -50 -12 -53 14 -100 31 -55 32 -60 13 -60 -7 0 -30 21 -50 47 -33 43 -36
51 -30 90 6 42 5 46 -36 83 -41 38 -43 41 -37 85 8 52 0 56 -34 19 -22 -24
-24 -32 -22 -132 2 -98 -6 -146 -22 -130 -3 3 -6 16 -7 29 0 13 -7 57 -15 98
-12 64 -12 80 2 133 8 33 15 67 15 75 0 9 11 40 25 69 28 59 32 107 17 214 -6
41 -11 78 -12 82 0 9 -30 38 -39 38 -4 0 -7 -70 -6 -155 1 -107 -2 -154 -9
-152 -17 5 -34 85 -35 160 -1 55 -6 77 -27 113 -21 36 -25 54 -22 89 5 36 2
48 -16 64 -12 12 -30 21 -39 21 -37 0 -38 -32 -7 -219 17 -99 30 -202 30 -229
0 -27 7 -67 16 -88 16 -37 40 -301 29 -312 -13 -13 -28 21 -51 114 -24 97 -48
145 -57 113 -34 -112 -35 -168 -6 -233 11 -26 19 -59 17 -73 l-3 -27 -53 47
c-58 52 -80 57 -107 27 -10 -11 -24 -20 -32 -20 -27 0 -12 61 37 154 61 115
80 186 81 291 1 115 -54 267 -129 355 l-30 35 -26 -24 c-32 -30 -99 -158 -120
-230 -20 -68 -21 -195 -1 -270 8 -32 37 -100 65 -152 46 -88 65 -159 41 -159
-6 0 -22 11 -37 25 -15 14 -31 25 -36 25 -5 0 -31 -20 -57 -45 -26 -25 -53
-45 -60 -45 -17 0 -13 40 9 89 23 50 25 114 7 185 -22 85 -40 69 -72 -64 -21
-87 -36 -123 -47 -112 -12 12 8 260 26 311 9 24 16 62 16 85 0 40 41 312 55
369 11 43 -1 77 -28 77 -44 0 -61 -22 -58 -79 2 -41 -4 -62 -23 -96 -21 -35
-26 -58 -27 -112 -1 -75 -18 -155 -35 -160 -7 -2 -10 45 -9 152 1 85 -2 155
-6 155 -17 0 -38 -46 -44 -95 -3 -27 -11 -71 -16 -96 -9 -41 -7 -55 19 -125
17 -44 37 -112 46 -151 15 -65 15 -80 1 -144 -8 -39 -12 -76 -9 -80 3 -5 2
-19 -1 -30 -5 -15 -10 -18 -18 -10 -7 7 -11 55 -12 120 0 102 -2 111 -24 135
-14 14 -27 26 -30 26 -3 0 -6 -20 -6 -45 0 -38 -6 -50 -38 -83 -36 -37 -38
-42 -32 -84 6 -41 4 -49 -27 -84 -39 -46 -49 -54 -60 -48 -5 3 4 27 19 54 26
47 27 50 14 100 l-14 53 36 32 c32 30 36 37 31 72 -8 60 -13 77 -28 96 -14 18
-18 18 -90 2 -95 -21 -112 -42 -132 -157 -19 -107 -39 -130 -29 -33 4 39 12
80 16 93 5 13 9 42 9 66 l0 42 55 18 c68 21 103 51 115 96 5 19 13 51 18 70
19 76 -3 77 -123 9 -141 -80 -176 -119 -150 -168 8 -17 15 -49 15 -72 0 -48
-59 -269 -72 -269 -11 0 -10 31 5 125 16 99 10 130 -23 130 -23 0 -25 -4 -30
-63 -4 -53 -9 -66 -33 -85 -15 -12 -41 -51 -58 -87 -17 -36 -33 -60 -36 -53
-2 6 3 25 11 42 9 16 16 42 16 57 0 16 10 36 26 50 23 22 25 29 18 72 -8 59
-8 58 -49 72 l-35 12 -90 -84 c-49 -46 -90 -89 -90 -95 0 -7 -6 -13 -13 -13
-9 0 -12 10 -9 31 3 20 19 42 48 67 24 20 64 62 88 92 35 46 53 60 102 78 50
18 80 41 197 154 75 73 158 146 182 161 25 16 45 32 45 37 0 12 -161 -58 -185
-80 -23 -22 -134 -80 -152 -80 -26 0 -11 18 36 44 28 15 69 43 93 63 24 20 66
46 93 59 28 12 67 40 89 62 28 30 61 49 125 73 109 41 192 119 152 144 -18 11
-120 -37 -226 -105 -60 -39 -114 -70 -121 -70 -6 0 -47 -35 -91 -77 -74 -74
-80 -78 -128 -81 -27 -1 -55 -8 -61 -15 -12 -13 -48 -81 -84 -159 -20 -45 -74
-97 -87 -85 -3 3 11 26 30 52 20 25 39 60 42 78 4 18 19 58 33 90 22 51 32 62
76 84 58 29 98 62 90 74 -7 12 -99 11 -153 -2 -63 -14 -93 -40 -132 -111 -30
-57 -34 -71 -34 -147 l0 -84 -39 -33 c-21 -18 -77 -52 -124 -75 -80 -40 -109
-64 -186 -154 -18 -22 -25 -25 -26 -14 0 9 18 39 40 65 22 27 40 51 40 54 0 3
38 25 84 49 46 24 101 58 121 77 34 31 37 38 32 74 -10 76 -51 93 -86 36 -27
-44 -108 -118 -146 -134 -16 -7 -44 -32 -61 -56 -22 -29 -54 -54 -103 -79 -39
-20 -71 -33 -71 -29 0 4 30 25 68 47 51 31 72 50 87 81 11 23 28 51 38 62 10
11 15 22 10 25 -23 12 -137 29 -168 24 -34 -6 -113 -57 -197 -128 -20 -17 -42
-29 -49 -27 -6 2 29 36 79 76 49 40 92 78 95 86 7 17 124 27 191 16 85 -13
166 19 136 54 -14 18 -85 20 -165 6 -97 -18 -144 -23 -170 -16 -39 10 -20 26
31 26 25 0 61 7 82 16 20 9 64 22 97 30 150 34 200 53 228 84 58 65 25 72
-116 26 -81 -26 -129 -36 -176 -36 -58 0 -71 -4 -151 -50 -117 -67 -307 -157
-350 -165 -57 -11 -25 9 96 59 60 25 162 78 225 118 99 62 122 72 174 77 44 4
60 10 60 21 0 24 -127 36 -174 17 -67 -27 -176 -66 -193 -69 -9 -2 -17 2 -18
7 -3 17 220 106 300 121 41 7 103 13 137 13 64 1 93 7 93 21 0 14 -45 20 -182
25 -114 5 -147 3 -232 -16 -112 -26 -154 -49 -178 -101 -35 -73 -103 -109
-318 -168 -114 -31 -68 1 65 45 132 44 166 68 205 146 36 71 81 103 165 118
86 16 96 34 15 28 -68 -5 -247 -62 -307 -97 -40 -23 -67 -26 -38 -4 33 26 133
74 153 74 10 0 50 16 89 35 39 19 80 35 90 35 10 0 51 7 91 17 71 16 73 16
127 -6 51 -21 57 -22 104 -8 33 10 64 12 97 7 62 -10 67 -6 18 15 -63 26 -82
28 -125 11 -27 -11 -46 -13 -57 -7 -14 8 -5 15 49 41 60 28 71 30 110 21 24
-6 70 -13 101 -16 44 -5 72 -16 130 -53 l73 -47 140 1 c154 1 243 17 329 60
56 28 96 61 96 79 0 8 -29 14 -81 18 -71 6 -85 4 -109 -13 -16 -11 -33 -20
-39 -20 -5 0 -46 -12 -91 -26 -121 -38 -128 -25 -15 25 55 24 114 54 131 67
18 13 53 28 79 34 101 23 109 50 15 50 -114 0 -158 -17 -279 -105 -37 -27 -83
-31 -156 -15 -33 7 -29 8 22 4 57 -5 64 -4 88 20 51 51 3 59 -147 26 -51 -12
-160 -25 -243 -31 -238 -15 -282 -22 -420 -69 -128 -43 -131 -43 -255 -41 -74
1 -138 -3 -155 -9 -17 -6 -67 -47 -111 -91 -72 -70 -104 -92 -104 -73 0 10
152 164 185 187 23 17 56 24 151 33 130 13 188 32 237 78 15 14 25 31 22 36
-12 19 -90 11 -141 -15 -88 -45 -136 -57 -271 -65 -151 -9 -171 -16 -287 -107
-73 -57 -166 -110 -166 -95 0 5 24 25 53 44 28 20 86 63 127 97 79 65 145 101
184 101 14 0 28 5 31 10 15 24 -88 10 -147 -20 -55 -28 -60 -29 -76 -14 -19
20 -111 15 -211 -11 -35 -9 -84 -15 -109 -13 -43 3 -36 6 83 35 72 17 159 34
195 38 36 3 112 17 170 30 58 13 130 26 160 30 30 3 109 22 175 40 207 59 199
59 660 60 456 1 516 6 695 55 222 62 412 208 499 384 101 207 118 551 50 1031
-54 380 -135 597 -256 690 -65 50 -146 78 -223 79 -62 1 -70 -2 -187 -67 -121
-68 -208 -96 -293 -97 -50 0 -123 -38 -212 -108 -112 -89 -217 -153 -251 -152
-7 1 10 12 36 26 27 14 107 70 180 125 161 123 182 135 283 148 86 12 151 45
187 93 33 44 18 58 -61 58 -67 0 -207 -20 -286 -41 -28 -8 -60 -32 -120 -94
-66 -68 -88 -85 -121 -90 -48 -9 -69 -19 -117 -58 -52 -42 -60 -26 -12 20 38
37 56 47 117 72 31 12 37 41 8 41 -11 0 -48 -15 -84 -34 -36 -19 -93 -40 -128
-46 -122 -22 -224 -83 -283 -169 -30 -43 -52 -54 -139 -71 -48 -10 -69 -21
-113 -61 -52 -47 -74 -59 -74 -40 0 22 122 121 163 132 23 6 52 15 65 20 26
10 67 92 58 115 -13 34 -109 10 -278 -69 -91 -42 -98 -48 -122 -95 -30 -60
-59 -84 -133 -112 -93 -35 -92 0 1 45 34 16 47 32 74 87 29 59 42 73 122 132
96 70 142 96 205 116 57 18 62 26 35 55 -40 43 -76 48 -211 31 -156 -21 -183
-20 -247 4 -69 26 -94 25 -148 -6 -24 -14 -49 -24 -56 -22 -19 7 81 60 123 65
27 4 54 -1 89 -16 46 -20 57 -21 138 -11 48 6 122 20 165 32 l78 21 72 -22
c78 -23 122 -27 132 -11 10 16 -64 88 -109 105 -40 16 -47 15 -136 -6 -52 -12
-116 -22 -144 -23 -54 -1 -367 77 -330 82 12 2 74 -11 139 -27 143 -38 200
-39 323 -5 145 40 162 35 331 -88 82 -59 181 -47 282 33 22 17 47 45 55 61 14
27 14 31 -3 50 -10 11 -35 29 -55 39 -33 17 -61 19 -240 19 l-203 0 -65 34
c-61 32 -86 56 -60 56 7 0 39 -12 72 -27 58 -26 62 -26 153 -16 96 12 135 25
135 46 -1 7 -22 28 -47 47 -136 102 -154 107 -249 65 -76 -33 -122 -32 -206 7
l-69 32 -82 -27 c-45 -15 -125 -32 -177 -37 -52 -6 -121 -17 -152 -24 -32 -8
-58 -11 -58 -6 0 11 115 38 213 49 52 6 112 21 149 37 89 37 117 39 184 14 72
-27 115 -21 144 19 11 16 20 34 20 40 0 13 -43 24 -205 52 -149 25 -166 23
-308 -36 -71 -29 -105 -37 -177 -42 -115 -8 -123 12 -9 21 99 9 162 27 251 73
l69 35 159 1 c110 1 163 6 171 14 10 10 0 30 -46 97 l-58 85 -81 -6 c-64 -4
-92 -12 -132 -34 -30 -17 -66 -29 -87 -29 -20 0 -73 -9 -119 -20 -88 -21 -105
-24 -96 -14 11 11 161 44 198 44 31 0 51 10 104 53 36 28 65 55 66 58 0 3 -55
9 -122 12 -171 9 -184 28 -28 42 68 6 189 27 232 41 11 3 39 -16 82 -56 66
-62 86 -68 86 -26 0 31 -43 68 -130 111 -41 20 -88 47 -105 60 -16 12 -53 34
-82 48 -55 28 -74 47 -48 47 21 0 128 -54 143 -73 7 -8 45 -29 84 -46 40 -18
94 -42 120 -53 62 -28 75 -49 93 -155 20 -114 43 -160 117 -228 72 -66 195
-155 216 -155 42 0 -41 208 -101 254 -46 35 -181 186 -173 193 4 4 44 -31 89
-78 46 -46 103 -100 128 -120 28 -24 73 -83 124 -165 106 -172 114 -179 207
-204 94 -24 95 -24 75 -2 -22 24 -57 103 -57 130 0 35 18 26 50 -27 25 -40 40
-52 77 -65 25 -9 61 -27 79 -41 47 -36 119 -47 223 -35 160 20 241 54 227 97
-4 12 -36 49 -71 82 -59 55 -74 63 -163 91 -110 33 -128 35 -216 19 -51 -10
-79 -9 -157 5 -139 25 -189 37 -189 47 0 13 34 11 123 -6 109 -21 149 -19 247
11 47 14 91 28 97 30 21 6 5 27 -55 71 -68 51 -94 53 -180 18 -71 -29 -108
-31 -159 -10 -21 9 -64 18 -98 21 -80 7 -105 13 -105 24 0 17 93 23 177 10 82
-13 84 -13 108 10 47 45 40 50 -192 139 -120 46 -288 116 -374 157 -161 76
-180 81 -239 64 -36 -10 -70 -5 -70 10 0 5 10 11 23 15 12 3 45 13 73 22 l50
16 80 -36 c43 -19 90 -38 104 -42 14 -4 110 -38 213 -77 208 -77 286 -102 294
-94 9 8 -117 145 -196 213 l-74 63 -65 0 -64 0 48 33 c27 17 49 39 49 47 0 19
-58 34 -191 50 l-112 12 -89 -41 c-116 -53 -175 -55 -290 -11 -64 25 -88 30
-133 25 l-55 -5 48 14 c44 13 54 12 135 -11 129 -36 196 -30 289 26 58 34 84
44 135 48 70 6 98 17 98 38 0 26 -65 36 -222 33 -149 -3 -155 -2 -223 26 -66
27 -112 56 -89 56 6 0 44 -11 84 -25 85 -29 149 -31 270 -10 47 8 106 15 132
15 26 0 50 4 53 10 12 19 -84 198 -137 257 -11 12 -54 34 -94 49 -41 15 -85
38 -99 52 -28 27 -85 111 -85 124 0 20 21 5 55 -41 43 -56 88 -83 165 -101 96
-22 143 -56 206 -147 31 -46 60 -83 65 -83 17 0 9 25 -21 70 -17 25 -39 73
-50 108 -27 86 -34 97 -113 180 -94 96 -64 92 40 -6 75 -71 83 -82 103 -147
16 -54 31 -80 65 -115 57 -58 75 -103 75 -185 0 -47 6 -77 21 -107 27 -52 153
-182 171 -176 34 12 -21 314 -78 428 -12 25 -58 80 -104 123 -85 81 -103 111
-115 191 -6 45 -5 49 9 37 8 -7 18 -28 22 -46 10 -55 38 -90 121 -148 115 -81
128 -99 173 -226 41 -118 55 -145 72 -135 14 9 1 174 -18 227 -20 57 -29 143
-16 151 12 7 15 -4 27 -79 4 -21 16 -57 27 -80 19 -37 43 -133 55 -228 3 -20
-2 -75 -12 -122 -19 -97 -11 -161 27 -224 29 -48 148 -171 165 -171 16 0 16 5
-2 58 -12 34 -15 94 -14 285 1 290 14 287 30 -7 9 -188 12 -205 37 -256 22
-44 32 -55 52 -55 20 0 30 10 48 45 27 55 28 95 2 138 -20 32 -19 59 1 46 6
-3 24 -24 40 -46 35 -49 37 -87 9 -208 -23 -103 -24 -132 -6 -169 12 -22 277
-260 379 -340 28 -22 51 7 51 66 0 63 -32 120 -93 166 -25 20 -65 55 -88 79
-38 39 -45 54 -68 147 -14 57 -32 120 -40 139 -8 19 -15 44 -15 56 1 41 29
-28 60 -151 34 -132 44 -150 121 -211 30 -24 71 -57 92 -73 65 -52 87 -97 106
-211 10 -57 25 -117 34 -134 9 -17 41 -48 72 -69 78 -54 89 -46 93 72 l3 90
-48 89 c-26 49 -61 127 -78 174 l-30 85 -70 42 c-70 42 -155 121 -155 144 0 7
24 -12 53 -43 30 -31 76 -67 103 -81 63 -32 88 -59 113 -125 31 -79 69 -152
107 -203 33 -45 59 -125 85 -262 12 -65 49 -117 83 -117 13 0 38 10 57 23 50
33 67 96 79 285 12 214 9 234 -49 279 -25 20 -75 65 -111 99 -78 75 -273 208
-327 223 -21 6 -53 11 -71 11 -18 0 -47 7 -65 16 -39 20 -118 76 -114 81 2 1
43 -17 91 -42 66 -34 98 -45 133 -45 51 0 174 -56 280 -128 31 -20 75 -50 98
-65 55 -37 109 -41 113 -10 5 32 -51 135 -93 171 -64 56 -149 93 -239 102 -90
9 -315 54 -358 71 -43 17 -34 32 15 25 23 -3 92 -8 152 -12 99 -6 112 -4 133
12 l22 19 -69 76 c-113 123 -156 132 -293 63 -105 -53 -151 -57 -267 -25 -53
14 -86 27 -75 29 12 2 49 -4 82 -12 115 -30 170 -16 259 68 51 47 63 64 61 85
-3 30 -49 56 -115 67 -38 6 -44 3 -88 -37 -42 -38 -52 -43 -105 -47 -33 -2
-67 -2 -76 2 -26 10 -1 32 51 45 34 9 46 17 51 35 12 48 2 61 -41 59 -166 -10
-179 -9 -225 18 -50 30 -87 66 -77 75 3 4 29 -8 56 -26 74 -47 115 -49 195
-12 60 28 66 34 66 61 0 22 -7 35 -26 48 -23 15 -34 15 -101 4 -64 -11 -84
-10 -137 3 -33 8 -73 18 -88 21 -72 15 4 37 94 28 42 -4 56 -2 67 11 22 26 2
37 -80 46 -41 5 -87 14 -104 21 -17 7 -79 13 -140 14 -106 1 -177 17 -235 55
-33 21 4 21 67 0 63 -20 77 -21 203 -14 134 9 135 9 109 27 -15 10 -55 22 -90
28 -143 22 -192 51 -260 151 -45 66 -79 91 -154 113 -98 30 -103 57 -8 36 99
-22 138 -46 193 -121 27 -38 64 -77 81 -86 17 -8 76 -20 130 -25 116 -11 168
-26 266 -80 40 -21 77 -39 83 -39 32 0 -20 64 -97 122 -65 48 -87 81 -114 173
-11 39 -29 93 -40 120 -35 85 -34 82 -12 62 26 -22 59 -98 74 -166 18 -85 52
-122 194 -211 53 -33 69 -51 146 -173 30 -46 50 -44 67 8 28 83 0 150 -99 246
l-69 66 6 46 c9 67 -1 92 -49 126 -41 28 -123 135 -161 209 -28 54 -11 36 53
-58 34 -49 83 -106 109 -126 69 -55 72 -61 72 -130 l0 -63 70 -56 c86 -69 119
-122 131 -215 30 -230 24 -209 70 -256 71 -73 111 -52 95 49 -4 23 -11 78 -15
122 -5 44 -13 91 -18 105 -6 14 -13 90 -17 170 -10 202 -12 210 -108 304 -44
43 -86 94 -94 112 -16 39 -20 229 -4 239 12 7 11 13 14 -90 4 -101 22 -142 82
-191 102 -84 125 -108 154 -168 19 -39 34 -91 42 -144 13 -98 27 -111 69 -64
46 51 54 98 52 292 -2 190 9 202 27 29 5 -55 12 -105 15 -109 12 -19 -27 -221
-60 -314 -20 -55 -36 -117 -36 -140 -1 -59 89 -302 134 -361 12 -16 17 -17 30
-6 25 20 31 91 13 174 -23 112 -31 203 -18 211 12 7 26 -38 38 -119 4 -27 18
-78 30 -113 16 -41 24 -85 25 -130 0 -37 4 -91 8 -121 7 -51 13 -59 79 -123
42 -40 77 -65 85 -62 16 6 37 68 37 108 0 15 -7 40 -15 56 -16 31 -59 239 -51
247 8 8 23 -30 41 -107 10 -41 31 -97 46 -125 20 -36 31 -75 39 -138 6 -48 15
-98 20 -111 23 -61 115 -89 144 -43 18 29 30 144 21 217 -6 49 -13 67 -45 103
-21 23 -61 90 -89 147 -29 57 -70 123 -92 147 -77 83 -183 265 -139 238 6 -3
37 -48 71 -98 34 -52 77 -103 98 -118 20 -14 63 -65 95 -113 64 -94 86 -107
86 -50 0 52 -37 189 -67 248 -39 77 -126 205 -143 211 -8 2 -52 11 -96 19
-109 19 -149 39 -180 91 -25 44 -63 209 -51 222 14 13 27 -13 38 -72 10 -60
50 -135 70 -135 7 0 9 10 4 28 -4 15 -13 56 -21 92 -8 36 -17 77 -20 93 -7 28
6 36 24 15 6 -7 17 -40 26 -73 20 -77 45 -110 82 -110 43 0 42 32 -6 155 -41
103 -62 168 -74 221 -6 28 -27 39 -110 59 -66 15 -116 42 -174 94 -35 31 -62
45 -92 50 -24 4 -62 20 -84 36 -46 34 -29 40 29 10 22 -11 56 -20 76 -20 28 0
48 -9 78 -34 66 -56 191 -82 191 -41 0 8 -25 30 -55 50 -51 34 -104 99 -91
112 3 3 23 -10 45 -30 22 -20 71 -52 108 -71 80 -40 105 -65 129 -126 26 -69
31 -67 38 17 4 43 12 96 18 118 8 34 11 37 20 21 6 -10 8 -44 6 -75 -3 -33 1
-76 9 -105 10 -35 13 -72 8 -130 -6 -78 -5 -84 28 -152 57 -116 69 -112 97 30
28 139 27 199 -6 242 -25 33 -27 39 -20 110 3 42 8 80 12 85 13 21 24 -5 24
-56 0 -75 31 -105 72 -68 31 28 24 111 -16 202 -19 42 -37 92 -40 111 -6 34
-6 34 12 -8 21 -51 97 -142 118 -142 17 0 16 -5 4 58 -5 27 -23 71 -40 98 -16
26 -30 52 -30 56 0 17 20 7 39 -21z m-1742 -3607 c-3 -3 -12 -4 -19 -1 -8 3
-5 6 6 6 11 1 17 -2 13 -5z m3220 -2000 c-3 -3 -12 -4 -19 -1 -8 3 -5 6 6 6
11 1 17 -2 13 -5z"/>
<path d="M9920 13540 c0 -5 9 -14 20 -20 22 -12 27 -1 8 18 -14 14 -28 16 -28
2z"/>
<path d="M10052 13538 c-7 -7 -12 -15 -12 -20 0 -12 28 2 34 18 7 17 -6 18
-22 2z"/>
<path d="M9985 13403 c-10 -64 -26 -106 -62 -159 -20 -30 -58 -120 -95 -225
-54 -157 -61 -183 -62 -259 -1 -76 2 -91 27 -135 33 -60 102 -143 111 -134 4
4 13 46 20 95 8 49 19 101 25 116 9 23 6 35 -14 74 -31 59 -31 93 0 180 15 41
23 55 20 34 -20 -120 -19 -125 14 -161 l31 -34 31 34 c28 31 31 38 25 80 -9
69 -49 231 -57 231 -4 0 -14 -26 -23 -57 -17 -62 -15 -38 6 65 7 34 15 62 18
62 3 0 12 -33 19 -72 7 -40 26 -114 42 -164 35 -110 36 -138 5 -196 l-23 -44
18 -70 c10 -38 18 -87 19 -109 0 -22 4 -47 10 -55 13 -21 76 50 114 130 42 90
41 166 -7 315 -19 61 -42 135 -51 166 -9 30 -38 89 -66 130 -27 40 -53 90 -56
109 -12 75 -16 90 -24 90 -5 0 -12 -17 -15 -37z m32 -175 c-3 -8 -6 -5 -6 6
-1 11 2 17 5 13 3 -3 4 -12 1 -19z"/>
</g>
</svg>
